<svg xmlns:xlink="http://www.w3.org/1999/xlink" width="997" xmlns="http://www.w3.org/2000/svg" height="420.619" id="screenshot-79177ed8-4585-8042-8002-261f7a13fb12" viewBox="0 0 997 420.619" style="-webkit-print-color-adjust: exact;" fill="none" version="1.1"><g id="shape-79177ed8-4585-8042-8002-261f7a13fb12" width="997" height="420.61854" xmlns:xlink="http://www.w3.org/1999/xlink" rx="0" ry="0" style="fill: rgb(0, 0, 0);"><g id="shape-79177ed8-4585-8042-8002-261f7a164814"><g class="fills" id="fills-79177ed8-4585-8042-8002-261f7a164814"><path rx="0" ry="0" d="M304.189,3.913C318.667,-2.219,336.816,-1.544,348.661,8.795C331.821,11.755,316.571,20.576,305.609,33.698C301.399,38.774,297.246,44.857,290.773,46.116C286.746,46.900,282.538,45.551,279.100,43.313C275.661,41.074,272.862,38.001,270.104,34.963L269.144,34.606C278.402,21.898,289.711,10.045,304.189,3.913ZZ" style="fill: rgb(240, 240, 240);"/></g></g><g id="shape-79177ed8-4585-8042-8002-261f7a172e15"><g class="fills" id="fills-79177ed8-4585-8042-8002-261f7a172e15"><path rx="0" ry="0" d="M348.480,9.070C335.736,6.430,322.485,7.872,310.608,13.192C308.030,14.291,305.643,15.791,303.532,17.634C301.535,19.496,300.072,21.859,299.296,24.478C298.524,26.905,298.015,29.477,296.666,31.674C295.236,33.928,292.912,35.464,290.278,35.897C287.047,36.514,283.787,35.934,280.618,35.256C277.100,34.503,273.458,33.665,269.882,34.548C269.448,34.655,269.308,33.977,269.740,33.870C275.962,32.333,281.979,35.755,288.205,35.446C291.110,35.302,293.989,34.282,295.729,31.836C297.250,29.697,297.777,27.045,298.538,24.581C299.257,22.015,300.593,19.665,302.430,17.735C304.440,15.790,306.766,14.201,309.309,13.037C314.992,10.324,321.066,8.521,327.308,7.695C334.428,6.713,341.663,6.956,348.700,8.413C349.136,8.504,348.913,9.160,348.480,9.070ZZ" style="fill: rgb(255, 255, 255);"/></g></g><g id="shape-79177ed8-4585-8042-8002-261f7a175f7d"><g class="fills" id="fills-79177ed8-4585-8042-8002-261f7a175f7d"><path rx="0" ry="0" d="M314.331,11.254C313.047,6.888,315.114,2.234,319.215,0.260C319.618,0.068,319.935,0.685,319.532,0.877C315.708,2.708,313.789,7.052,315.010,11.112C315.138,11.539,314.458,11.678,314.331,11.254ZZ" style="fill: rgb(255, 255, 255);"/></g></g><g id="shape-79177ed8-4585-8042-8002-261f7a178e52"><g class="fills" id="fills-79177ed8-4585-8042-8002-261f7a178e52"><path rx="0" ry="0" d="M299.526,23.195C303.461,25.387,308.078,26.015,312.455,24.954C312.889,24.849,313.030,25.527,312.597,25.633C308.039,26.728,303.236,26.065,299.146,23.775C298.756,23.557,299.138,22.978,299.526,23.195ZZ" style="fill: rgb(255, 255, 255);"/></g></g><g id="shape-79177ed8-4585-8042-8002-261f7a17d3df"><g class="fills" id="fills-79177ed8-4585-8042-8002-261f7a17d3df"><path rx="0" ry="0" d="M334.181,7.598C334.324,9.362,335.344,10.935,336.895,11.785C337.287,11.999,336.905,12.577,336.515,12.365C334.806,11.418,333.678,9.686,333.503,7.740C333.470,7.554,333.588,7.374,333.771,7.330C333.959,7.292,334.141,7.412,334.181,7.598ZZ" style="fill: rgb(255, 255, 255);"/></g></g><g id="shape-79177ed8-4585-8042-8002-261f7a18d1ba"><g class="fills" id="fills-79177ed8-4585-8042-8002-261f7a18d1ba"><path rx="0" ry="0" d="M347.244,62.011C346.996,61.884,346.747,61.758,346.493,61.634C343.140,59.953,339.656,58.547,336.076,57.430C335.800,57.340,335.520,57.252,335.242,57.169C326.588,54.570,317.525,53.601,308.517,54.310C304.932,54.595,301.374,55.153,297.874,55.978C293.041,57.118,287.891,58.739,283.104,58.231C282.604,58.183,282.107,58.105,281.617,57.996L268.784,35.806C268.780,35.740,268.771,35.678,268.767,35.613L268.214,34.750C268.391,34.695,268.577,34.642,268.754,34.586C268.857,34.554,268.963,34.527,269.066,34.494C269.135,34.474,269.205,34.454,269.266,34.432C269.289,34.425,269.313,34.419,269.331,34.415C269.392,34.393,269.452,34.379,269.508,34.360C270.543,34.058,271.582,33.764,272.625,33.476C272.630,33.473,272.630,33.473,272.638,33.475C280.564,31.206,288.731,29.884,296.968,29.539C297.213,29.532,297.464,29.522,297.716,29.525C301.401,29.440,305.087,29.656,308.737,30.171C310.735,30.459,312.717,30.849,314.675,31.338C319.733,32.611,324.559,34.671,328.976,37.444C337.781,42.973,344.720,51.256,347.072,61.246C347.132,61.501,347.189,61.752,347.244,62.011ZZ" style="fill: rgb(240, 240, 240);"/></g></g><g id="shape-79177ed8-4585-8042-8002-261f7a195dd3"><g class="fills" id="fills-79177ed8-4585-8042-8002-261f7a195dd3"><path rx="0" ry="0" d="M346.934,62.124C338.349,52.343,326.900,45.516,314.214,42.613C311.494,41.939,308.685,41.698,305.890,41.900C303.174,42.184,300.583,43.190,298.387,44.814C296.310,46.286,294.355,48.034,291.955,48.976C289.456,49.914,286.675,49.742,284.312,48.502C281.360,47.049,279.106,44.623,276.985,42.174C274.629,39.454,272.225,36.593,268.838,35.145C268.428,34.969,268.724,34.343,269.134,34.518C275.027,37.037,277.771,43.392,282.928,46.894C285.334,48.528,288.247,49.446,291.109,48.541C293.611,47.749,295.629,45.949,297.720,44.439C299.839,42.824,302.321,41.752,304.950,41.317C307.725,40.974,310.539,41.106,313.270,41.707C319.441,42.962,325.376,45.180,330.857,48.279C337.133,51.781,342.764,56.331,347.506,61.732C347.799,62.066,347.225,62.456,346.934,62.124ZZ" style="fill: rgb(255, 255, 255);"/></g></g><g id="shape-79177ed8-4585-8042-8002-261f7a19b6e3"><g class="fills" id="fills-79177ed8-4585-8042-8002-261f7a19b6e3"><path rx="0" ry="0" d="M318.354,43.307C319.957,39.048,324.409,36.577,328.872,37.470C329.309,37.559,329.191,38.242,328.753,38.153C324.598,37.313,320.450,39.626,318.981,43.603C318.825,44.021,318.200,43.723,318.354,43.307ZZ" style="fill: rgb(255, 255, 255);"/></g></g><g id="shape-79177ed8-4585-8042-8002-261f7a1a3016"><g class="fills" id="fills-79177ed8-4585-8042-8002-261f7a1a3016"><path rx="0" ry="0" d="M299.343,43.928C301.165,48.047,304.473,51.328,308.607,53.117C309.017,53.294,308.721,53.920,308.312,53.744C304.013,51.875,300.577,48.453,298.690,44.162C298.511,43.753,299.164,43.521,299.343,43.928ZZ" style="fill: rgb(255, 255, 255);"/></g></g><g id="shape-79177ed8-4585-8042-8002-261f7a1a6291"><g class="fills" id="fills-79177ed8-4585-8042-8002-261f7a1a6291"><path rx="0" ry="0" d="M336.404,52.340C335.456,53.833,335.323,55.704,336.049,57.317C336.234,57.723,335.581,57.955,335.397,57.551C334.603,55.766,334.745,53.703,335.777,52.044C335.863,51.876,336.065,51.803,336.238,51.878C336.410,51.961,336.484,52.166,336.404,52.340ZZ" style="fill: rgb(255, 255, 255);"/></g></g><g id="shape-79177ed8-4585-8042-8002-261f7a1ab50e"><g class="fills" id="fills-79177ed8-4585-8042-8002-261f7a1ab50e"><path rx="0" ry="0" d="M851.450,409.096L840.089,409.096L834.684,365.272L851.452,365.273L851.450,409.096ZZ" style="fill: rgb(160, 97, 106);"/></g></g><g id="shape-79177ed8-4585-8042-8002-261f7a1ad5a4"><g class="fills" id="fills-79177ed8-4585-8042-8002-261f7a1ad5a4"><path rx="0" ry="0" d="M854.348,420.110L817.713,420.108L817.713,419.645C817.714,411.770,824.098,405.386,831.972,405.386L831.973,405.386L854.349,405.387Z" style="fill: rgb(47, 46, 65);"/></g></g><g id="shape-79177ed8-4585-8042-8002-261f7a1ad5a5"><g class="fills" id="fills-79177ed8-4585-8042-8002-261f7a1ad5a5"><path rx="0" ry="0" d="M939.916,404.178L928.682,405.876L916.787,363.353L931.514,360.847L939.916,404.178ZZ" style="fill: rgb(160, 97, 106);"/></g></g><g id="shape-79177ed8-4585-8042-8002-261f7a1b3bde"><g class="fills" id="fills-79177ed8-4585-8042-8002-261f7a1b3bde"><path rx="0" ry="0" d="M944.427,414.634L908.204,420.110L908.135,419.651C906.958,411.865,912.316,404.599,920.102,403.421L920.103,403.421L942.227,400.077Z" style="fill: rgb(47, 46, 65);"/></g></g><g id="shape-79177ed8-4585-8042-8002-261f7a1b46c7"><g class="fills" id="fills-79177ed8-4585-8042-8002-261f7a1b46c7"><path rx="0" ry="0" d="M615.840,420.110L276.349,420.110L276.349,80.619L615.840,80.619Z" style="fill: rgb(255, 255, 255);"/></g></g><g id="shape-79177ed8-4585-8042-8002-261f7a1bbf54"><g class="fills" id="fills-79177ed8-4585-8042-8002-261f7a1bbf54"><path rx="0" ry="0" d="M615.840,420.110L276.349,420.110L276.349,80.619L615.840,80.619ZM281.365,415.094L610.824,415.094L610.824,85.634L281.365,85.634Z" style="fill: rgb(109, 175, 254);"/></g></g><g id="shape-79177ed8-4585-8042-8002-261f7a1bbf55"><g class="fills" id="fills-79177ed8-4585-8042-8002-261f7a1bbf55"><rect rx="0" ry="0" x="346.34704999999997" y="226.56141000000002" transform="matrix(1.000000, 0.000000, 0.000000, 1.000000, 0.000000, 0.000000)" width="217.7263700000002" height="7.685849999999959" style="fill: rgb(67, 127, 199);"/></g></g><g id="shape-79177ed8-4585-8042-8002-261f7a1bbf56"><g class="fills" id="fills-79177ed8-4585-8042-8002-261f7a1bbf56"><rect rx="0" ry="0" x="346.34704999999997" y="246.54462000000012" transform="matrix(1.000000, 0.000000, 0.000000, 1.000000, 0.000000, 0.000000)" width="217.7263700000002" height="7.685849999999959" style="fill: rgb(67, 127, 199);"/></g></g><g id="shape-79177ed8-4585-8042-8002-261f7a1bfc9f"><g class="fills" id="fills-79177ed8-4585-8042-8002-261f7a1bfc9f"><rect rx="0" ry="0" x="346.34704999999997" y="266.52783" transform="matrix(1.000000, 0.000000, 0.000000, 1.000000, 0.000000, 0.000000)" width="217.7263700000002" height="7.685849999999959" style="fill: rgb(67, 127, 199);"/></g></g><g id="shape-79177ed8-4585-8042-8002-261f7a1bfca0"><g class="fills" id="fills-79177ed8-4585-8042-8002-261f7a1bfca0"><ellipse rx="5.015949999999975" ry="5.015949999999975" cx="333.13117" cy="231.53035999999997" transform="matrix(1.000000, 0.000000, 0.000000, 1.000000, 0.000000, 0.000000)" style="fill: rgb(67, 127, 199);"/></g></g><g id="shape-79177ed8-4585-8042-8002-261f7a1bfca1"><g class="fills" id="fills-79177ed8-4585-8042-8002-261f7a1bfca1"><rect rx="0" ry="0" x="346.34704999999997" y="140.45425999999998" transform="matrix(1.000000, 0.000000, 0.000000, 1.000000, 0.000000, 0.000000)" width="217.7263700000002" height="7.685850000000016" style="fill: rgb(240, 240, 240);"/></g></g><g id="shape-79177ed8-4585-8042-8002-261f7a1bfca2"><g class="fills" id="fills-79177ed8-4585-8042-8002-261f7a1bfca2"><rect rx="0" ry="0" x="346.34704999999997" y="160.43747000000008" transform="matrix(1.000000, 0.000000, 0.000000, 1.000000, 0.000000, 0.000000)" width="217.7263700000002" height="7.685849999999959" style="fill: rgb(240, 240, 240);"/></g></g><g id="shape-79177ed8-4585-8042-8002-261f7a1c0038"><g class="fills" id="fills-79177ed8-4585-8042-8002-261f7a1c0038"><rect rx="0" ry="0" x="346.34704999999997" y="180.42067999999995" transform="matrix(1.000000, 0.000000, 0.000000, 1.000000, 0.000000, 0.000000)" width="217.7263700000002" height="7.685849999999959" style="fill: rgb(240, 240, 240);"/></g></g><g id="shape-79177ed8-4585-8042-8002-261f7a1c0039"><g class="fills" id="fills-79177ed8-4585-8042-8002-261f7a1c0039"><ellipse rx="5.015949999999975" ry="5.015950000000004" cx="333.13117" cy="144.58723" transform="matrix(1.000000, 0.000000, 0.000000, 1.000000, 0.000000, 0.000000)" style="fill: rgb(240, 240, 240);"/></g></g><g id="shape-79177ed8-4585-8042-8002-261f7a1c003a"><g class="fills" id="fills-79177ed8-4585-8042-8002-261f7a1c003a"><rect rx="0" ry="0" x="346.34704999999997" y="313.5045500000001" transform="matrix(1.000000, 0.000000, 0.000000, 1.000000, 0.000000, 0.000000)" width="217.7263700000002" height="7.685849999999959" style="fill: rgb(240, 240, 240);"/></g></g><g id="shape-79177ed8-4585-8042-8002-261f7a1c5131"><g class="fills" id="fills-79177ed8-4585-8042-8002-261f7a1c5131"><rect rx="0" ry="0" x="346.34704999999997" y="333.48776" transform="matrix(1.000000, 0.000000, 0.000000, 1.000000, 0.000000, 0.000000)" width="217.7263700000002" height="7.685849999999959" style="fill: rgb(240, 240, 240);"/></g></g><g id="shape-79177ed8-4585-8042-8002-261f7a1c5132"><g class="fills" id="fills-79177ed8-4585-8042-8002-261f7a1c5132"><rect rx="0" ry="0" x="346.34704999999997" y="353.4709600000001" transform="matrix(1.000000, 0.000000, 0.000000, 1.000000, 0.000000, 0.000000)" width="217.7263700000002" height="7.685849999999959" style="fill: rgb(240, 240, 240);"/></g></g><g id="shape-79177ed8-4585-8042-8002-261f7a1c5133"><g class="fills" id="fills-79177ed8-4585-8042-8002-261f7a1c5133"><ellipse rx="5.015949999999975" ry="5.015949999999975" cx="333.13117" cy="317.63751" transform="matrix(1.000000, 0.000000, 0.000000, 1.000000, 0.000000, 0.000000)" style="fill: rgb(229, 229, 229);"/></g></g><g id="shape-79177ed8-4585-8042-8002-261f7a1cb8ef"><g class="fills" id="fills-79177ed8-4585-8042-8002-261f7a1cb8ef"><path rx="0" ry="0" d="M798.078,286.000L600.544,286.000C597.585,285.993,595.186,281.087,595.183,275.030L595.183,128.076C595.183,122.020,597.585,117.115,600.544,117.105L798.078,117.105C801.037,117.113,803.436,122.019,803.439,128.076L803.439,275.029C803.436,281.085,801.033,285.993,798.078,286.000ZZ" style="fill: rgb(255, 255, 255);"/></g></g><g id="shape-79177ed8-4585-8042-8002-261f7a1d0f16"><g class="fills" id="fills-79177ed8-4585-8042-8002-261f7a1d0f16"><path rx="0" ry="0" d="M798.078,286.000L600.544,286.000C597.585,285.993,595.186,281.087,595.183,275.030L595.183,128.076C595.183,122.020,597.585,117.115,600.544,117.105L798.078,117.105C801.037,117.113,803.436,122.019,803.439,128.076L803.439,275.029C803.436,281.085,801.033,285.993,798.078,286.000ZZM600.544,121.493C598.768,121.493,597.329,124.442,597.327,128.076L597.327,275.029C597.327,278.662,598.768,281.607,600.544,281.611L798.078,281.611C799.854,281.611,801.293,278.663,801.295,275.029L801.295,128.076C801.295,124.442,799.854,121.497,798.078,121.493Z" style="fill: rgb(109, 175, 254);"/></g></g><g id="shape-79177ed8-4585-8042-8002-261f7a1d0f17"><g class="fills" id="fills-79177ed8-4585-8042-8002-261f7a1d0f17"><rect rx="0" ry="0" x="672.8845000000001" y="236.92799000000002" transform="matrix(1.000000, 0.000000, 0.000000, 1.000000, 0.000000, 0.000000)" width="53.1712" height="3.996470000000045" style="fill: rgb(67, 127, 199);"/></g></g><g id="shape-79177ed8-4585-8042-8002-261f7a1d0f18"><g class="fills" id="fills-79177ed8-4585-8042-8002-261f7a1d0f18"><rect rx="0" ry="0" x="665.7701999999999" y="247.31257000000005" transform="matrix(1.000000, 0.000000, 0.000000, 1.000000, 0.000000, 0.000000)" width="66.91615999999999" height="3.996470000000045" style="fill: rgb(67, 127, 199);"/></g></g><g id="shape-79177ed8-4585-8042-8002-261f7a1d563d"><g class="fills" id="fills-79177ed8-4585-8042-8002-261f7a1d563d"><path rx="0" ry="0" d="M734.029,186.514C734.024,198.733,727.599,210.051,717.110,216.317C706.621,222.583,693.610,222.877,682.849,217.090L682.842,217.083C667.895,209.031,660.964,191.350,666.456,175.285C671.948,159.220,688.252,149.483,705.001,152.266C721.749,155.050,734.028,169.537,734.029,186.514ZZ" style="fill: rgb(202, 202, 202);"/></g></g><g id="shape-79177ed8-4585-8042-8002-261f7a1db4f9"><g class="fills" id="fills-79177ed8-4585-8042-8002-261f7a1db4f9"><ellipse rx="9.437850000000026" ry="9.437850000000026" cx="699.48791" cy="175.39126" transform="matrix(1.000000, 0.000000, 0.000000, 1.000000, 0.000000, 0.000000)" style="fill: rgb(255, 255, 255);"/></g></g><g id="shape-79177ed8-4585-8042-8002-261f7a1dd93a"><g class="fills" id="fills-79177ed8-4585-8042-8002-261f7a1dd93a"><path rx="0" ry="0" d="M715.603,204.330C705.052,208.033,693.548,207.989,683.026,204.204L683.019,204.199L690.050,190.320L708.926,190.320Z" style="fill: rgb(255, 255, 255);"/></g></g><g id="shape-79177ed8-4585-8042-8002-261f7a1e2c28"><g class="fills" id="fills-79177ed8-4585-8042-8002-261f7a1e2c28"><path rx="0" ry="0" d="M560.144,338.547L708.360,338.547L708.360,273.559L706.079,273.559L706.079,336.266L560.144,336.266L560.144,338.547ZZ" style="fill: rgb(63, 61, 86);"/></g></g><g id="shape-79177ed8-4585-8042-8002-261f7a1e2c29"><g class="fills" id="fills-79177ed8-4585-8042-8002-261f7a1e2c29"><ellipse rx="12.541349999999966" ry="12.541350000000023" cx="707.21982" cy="284.08907000000005" transform="matrix(1.000000, 0.000000, 0.000000, 1.000000, 0.000000, 0.000000)" style="fill: rgb(63, 61, 86);"/></g></g><g id="shape-79177ed8-4585-8042-8002-261f7a1e625e"><g class="fills" id="fills-79177ed8-4585-8042-8002-261f7a1e625e"><path rx="0" ry="0" d="M286.078,196.000L88.544,196.000C85.585,195.993,83.186,191.087,83.183,185.030L83.183,38.076C83.183,32.020,85.585,27.115,88.544,27.105L286.078,27.105C289.037,27.113,291.436,32.019,291.439,38.076L291.439,185.029C291.436,191.085,289.033,195.993,286.078,196.000ZZ" style="fill: rgb(255, 255, 255);"/></g></g><g id="shape-79177ed8-4585-8042-8002-261f7a1eaab5"><g class="fills" id="fills-79177ed8-4585-8042-8002-261f7a1eaab5"><path rx="0" ry="0" d="M286.078,196.000L88.544,196.000C85.585,195.993,83.186,191.087,83.183,185.030L83.183,38.076C83.183,32.020,85.585,27.115,88.544,27.105L286.078,27.105C289.037,27.113,291.436,32.019,291.439,38.076L291.439,185.029C291.436,191.085,289.033,195.993,286.078,196.000ZZM88.544,31.493C86.768,31.493,85.329,34.442,85.327,38.076L85.327,185.029C85.327,188.662,86.768,191.607,88.544,191.611L286.078,191.611C287.854,191.611,289.293,188.663,289.295,185.029L289.295,38.076C289.295,34.442,287.854,31.497,286.078,31.493Z" style="fill: rgb(109, 175, 254);"/></g></g><g id="shape-79177ed8-4585-8042-8002-261f7a1efd60"><g class="fills" id="fills-79177ed8-4585-8042-8002-261f7a1efd60"><path rx="0" ry="0" d="M231.164,73.015C222.374,63.682,210.273,58.171,197.463,57.665L197.463,106.715Z" style="fill: rgb(63, 61, 86);"/></g></g><g id="shape-79177ed8-4585-8042-8002-261f7a1efd61"><g class="fills" id="fills-79177ed8-4585-8042-8002-261f7a1efd61"><path rx="0" ry="0" d="M231.164,79.122L197.463,112.823L244.561,112.823C244.577,100.288,239.782,88.225,231.164,79.122ZZ" style="fill: rgb(228, 228, 228);"/></g></g><g id="shape-79177ed8-4585-8042-8002-261f7a1f5b9c"><g class="fills" id="fills-79177ed8-4585-8042-8002-261f7a1f5b9c"><path rx="0" ry="0" d="M244.611,116.348C244.613,119.405,244.330,122.456,243.766,125.460C243.722,125.698,243.676,125.934,243.627,126.169C242.564,131.411,240.644,136.441,237.946,141.059C237.802,141.306,237.654,141.554,237.506,141.797L237.506,141.799C234.846,146.175,231.520,150.110,227.648,153.461C227.456,153.629,227.264,153.794,227.070,153.957C218.748,160.958,208.329,164.984,197.462,165.398L197.462,116.348Z" style="fill: rgb(240, 240, 240);"/></g></g><g id="shape-79177ed8-4585-8042-8002-261f7a1f8b02"><g class="fills" id="fills-79177ed8-4585-8042-8002-261f7a1f8b02"><path rx="0" ry="0" d="M192.698,165.441C193.350,165.441,193.998,165.424,194.644,165.399L194.644,116.346L158.971,152.019C168.076,160.653,180.151,165.458,192.698,165.441ZZ" style="fill: rgb(202, 202, 202);"/></g></g><g id="shape-79177ed8-4585-8042-8002-261f7a1f8b03"><g class="fills" id="fills-79177ed8-4585-8042-8002-261f7a1f8b03"><path rx="0" ry="0" d="M192.765,63.729C179.744,63.729,167.257,68.901,158.050,78.108C148.843,87.315,143.671,99.802,143.671,112.823L194.762,112.823L194.762,63.772C194.099,63.746,193.434,63.729,192.765,63.729ZZ" style="fill: rgb(67, 127, 199);"/></g></g><g id="shape-79177ed8-4585-8042-8002-261f7a1fe6ea"><g class="fills" id="fills-79177ed8-4585-8042-8002-261f7a1fe6ea"><path rx="0" ry="0" d="M181.052,116.348L170.731,126.669L170.393,127.007L170.386,127.014L161.385,136.013L161.042,136.355L151.318,146.080L150.975,146.422L150.975,146.425L145.379,152.019C135.556,142.756,129.995,129.848,130.011,116.348Z" style="fill: rgb(67, 127, 199);"/></g></g><g id="shape-79177ed8-4585-8042-8002-261f7a2000be"><g class="fills" id="fills-79177ed8-4585-8042-8002-261f7a2000be"><path rx="0" ry="0" d="M346.913,250.547L198.698,250.547L198.698,185.559L200.978,185.559L200.978,248.266L346.913,248.266L346.913,250.547ZZ" style="fill: rgb(63, 61, 86);"/></g></g><g id="shape-79177ed8-4585-8042-8002-261f7a2000bf"><g class="fills" id="fills-79177ed8-4585-8042-8002-261f7a2000bf"><ellipse rx="12.541350000000023" ry="12.541350000000023" cx="199.83774999999997" cy="196.08907000000005" transform="matrix(1.000000, 0.000000, 0.000000, 1.000000, 0.000000, 0.000000)" style="fill: rgb(63, 61, 86);"/></g></g><g id="shape-79177ed8-4585-8042-8002-261f7a20bfdf"><g class="fills" id="fills-79177ed8-4585-8042-8002-261f7a20bfdf"><path rx="0" ry="0" d="M904.885,191.917L892.270,195.222L893.109,215.675L893.213,252.913C890.669,254.672,889.474,257.820,890.209,260.825C890.945,263.830,893.458,266.069,896.528,266.455C899.597,266.841,902.587,265.292,904.043,262.563C905.499,259.833,905.120,256.488,903.090,254.154L906.966,216.779Z" style="fill: rgb(160, 97, 106);"/></g></g><g id="shape-79177ed8-4585-8042-8002-261f7a20ff48"><g class="fills" id="fills-79177ed8-4585-8042-8002-261f7a20ff48"><path rx="0" ry="0" d="M908.415,204.215L889.976,198.006L889.933,197.728C889.905,197.553,887.200,180.089,887.234,168.107C887.159,165.406,888.278,162.809,890.294,161.008C893.124,158.426,897.217,157.767,900.715,159.332C904.449,160.872,906.939,164.453,907.081,168.490Z" style="fill: rgb(228, 228, 228);"/></g></g><g id="shape-79177ed8-4585-8042-8002-261f7a210e15"><g class="fills" id="fills-79177ed8-4585-8042-8002-261f7a210e15"><path rx="0" ry="0" d="M874.111,202.502L845.908,195.201L832.871,239.108L832.408,402.677L853.975,402.542L862.990,270.153L920.448,392.483L943.616,389.703L893.109,258.569C893.109,258.569,895.889,235.401,887.085,223.817L888.939,211.769Z" style="fill: rgb(47, 46, 65);"/></g></g><g id="shape-79177ed8-4585-8042-8002-261f7a215f71"><g class="fills" id="fills-79177ed8-4585-8042-8002-261f7a215f71"><path rx="0" ry="0" d="M889.774,215.013L887.639,214.979L844.298,197.655L865.033,151.474L874.877,153.263L873.085,146.095L894.837,140.778L898.622,155.916L904.206,160.992C907.080,163.607,908.141,167.670,906.914,171.356L894.050,209.949C894.264,211.208,893.912,212.498,893.087,213.474C892.263,214.450,891.051,215.013,889.774,215.013ZZ" style="fill: rgb(228, 228, 228);"/></g></g><g id="shape-79177ed8-4585-8042-8002-261f7a21b30b"><g class="fills" id="fills-79177ed8-4585-8042-8002-261f7a21b30b"><path rx="0" ry="0" d="M857.179,180.432L845.777,174.103L832.250,189.467L806.591,216.454C803.536,215.968,800.498,217.417,798.953,220.097C797.408,222.778,797.677,226.133,799.629,228.533C801.581,230.933,804.812,231.880,807.750,230.913C810.689,229.946,812.727,227.267,812.873,224.176L841.502,199.841Z" style="fill: rgb(160, 97, 106);"/></g></g><g id="shape-79177ed8-4585-8042-8002-261f7a21e284"><g class="fills" id="fills-79177ed8-4585-8042-8002-261f7a21e284"><path rx="0" ry="0" d="M851.232,191.760L842.195,174.530L842.356,174.299C842.457,174.155,852.571,159.662,860.874,151.025C862.687,149.020,865.291,147.917,867.992,148.008C871.822,148.099,875.235,150.451,876.683,153.998C878.318,157.692,877.642,162.000,874.956,165.016Z" style="fill: rgb(228, 228, 228);"/></g></g><g id="shape-79177ed8-4585-8042-8002-261f7a222c2f"><g class="fills" id="fills-79177ed8-4585-8042-8002-261f7a222c2f"><ellipse rx="17.282640000000015" ry="17.282639999999986" cx="878.7434199999999" cy="120.67823999999993" transform="matrix(1.000000, 0.000000, 0.000000, 1.000000, 0.000000, 0.000000)" style="fill: rgb(160, 97, 106);"/></g></g><g id="shape-79177ed8-4585-8042-8002-261f7a2260a0"><g class="fills" id="fills-79177ed8-4585-8042-8002-261f7a2260a0"><path rx="0" ry="0" d="M857.946,110.544C860.853,105.341,861.965,103.168,865.712,100.004C869.026,97.206,873.101,96.384,876.389,99.036C884.375,95.585,893.680,97.785,899.275,104.447C904.870,111.109,905.429,120.654,900.650,127.924C895.872,135.194,886.888,138.465,878.553,135.971C870.218,133.477,864.509,125.808,864.510,117.108C864.513,116.364,864.557,115.620,864.644,114.881C861.786,114.480,860.804,110.946,857.946,110.544ZZ" style="fill: rgb(47, 46, 65);"/></g></g><g id="shape-79177ed8-4585-8042-8002-261f7a2260a1"><g class="fills" id="fills-79177ed8-4585-8042-8002-261f7a2260a1"><path rx="0" ry="0" d="M93.592,261.632C95.239,260.642,96.363,258.973,96.661,257.075C96.959,255.177,96.402,253.244,95.138,251.797L103.575,167.131L89.487,168.066L85.584,251.436C83.242,253.771,83.016,257.490,85.059,260.091C87.102,262.692,90.768,263.354,93.592,261.632ZZ" style="fill: rgb(255, 184, 184);"/></g></g><g id="shape-79177ed8-4585-8042-8002-261f7a228867"><g class="fills" id="fills-79177ed8-4585-8042-8002-261f7a228867"><path rx="0" ry="0" d="M83.779,163.995L87.473,192.068L86.960,209.273L102.455,210.692L105.561,196.382L107.272,158.498C107.539,152.570,103.178,147.444,97.283,146.758L97.283,146.758C91.150,146.045,85.580,150.385,84.770,156.506Z" style="fill: rgb(47, 46, 65);"/></g></g><g id="shape-79177ed8-4585-8042-8002-261f7a22fb41"><g class="fills" id="fills-79177ed8-4585-8042-8002-261f7a22fb41"><path rx="0" ry="0" d="M143.119,410.998L152.518,410.998L156.989,374.744L143.117,374.744L143.119,410.998ZZ" style="fill: rgb(255, 183, 183);"/></g></g><g id="shape-79177ed8-4585-8042-8002-261f7a2331aa"><g class="fills" id="fills-79177ed8-4585-8042-8002-261f7a2331aa"><path rx="0" ry="0" d="M140.721,407.930L159.232,407.929L159.232,407.929C165.747,407.929,171.028,413.210,171.029,419.725L171.029,420.108L140.722,420.110Z" style="fill: rgb(47, 46, 65);"/></g></g><g id="shape-79177ed8-4585-8042-8002-261f7a2331ab"><g class="fills" id="fills-79177ed8-4585-8042-8002-261f7a2331ab"><path rx="0" ry="0" d="M65.508,410.998L74.907,410.998L79.378,374.744L65.506,374.744L65.508,410.998ZZ" style="fill: rgb(255, 183, 183);"/></g></g><g id="shape-79177ed8-4585-8042-8002-261f7a236d85"><g class="fills" id="fills-79177ed8-4585-8042-8002-261f7a236d85"><path rx="0" ry="0" d="M63.110,407.930L81.620,407.929L81.621,407.929C88.136,407.929,93.417,413.210,93.417,419.725L93.417,420.108L63.110,420.110Z" style="fill: rgb(47, 46, 65);"/></g></g><g id="shape-79177ed8-4585-8042-8002-261f7a236d86"><g class="fills" id="fills-79177ed8-4585-8042-8002-261f7a236d86"><ellipse rx="20.378420000000006" ry="20.378420000000006" cx="102.05754999999999" cy="113.03569000000005" transform="matrix(1.000000, 0.000000, 0.000000, 1.000000, 0.000000, 0.000000)" style="fill: rgb(255, 184, 184);"/></g></g><g id="shape-79177ed8-4585-8042-8002-261f7a23a664"><g class="fills" id="fills-79177ed8-4585-8042-8002-261f7a23a664"><path rx="0" ry="0" d="M104.691,141.687L90.549,143.304L90.549,143.304C83.572,153.198,81.781,165.844,85.737,177.286L96.408,208.156C96.408,208.156,81.594,237.852,81.594,265.423C81.594,292.995,53.384,391.411,53.384,391.411L93.093,395.553L110.420,290.712L134.296,395.131L161.554,390.694L146.541,253.789L136.621,208.728L136.198,186.753C136.198,186.753,140.416,170.264,129.859,159.707L116.970,141.746Z" style="fill: rgb(47, 46, 65);"/></g></g><g id="shape-79177ed8-4585-8042-8002-261f7a23a665"><g class="fills" id="fills-79177ed8-4585-8042-8002-261f7a23a665"><path rx="0" ry="0" d="M204.388,214.281C204.305,212.177,203.294,210.219,201.627,208.932C199.960,207.646,197.810,207.164,195.754,207.615L118.851,154.918L112.330,168.947L190.375,216.605C191.385,220.085,194.839,222.260,198.414,221.667C201.989,221.074,204.556,217.901,204.388,214.281ZZ" style="fill: rgb(255, 184, 184);"/></g></g><g id="shape-79177ed8-4585-8042-8002-261f7a23fab8"><g class="fills" id="fills-79177ed8-4585-8042-8002-261f7a23fab8"><path rx="0" ry="0" d="M105.412,172.286L134.329,183.522L150.590,193.076L160.114,178.936L148.001,168.416L112.503,146.820C106.949,143.441,99.726,144.931,95.964,150.234L95.964,150.234C92.048,155.751,93.284,163.388,98.738,167.390Z" style="fill: rgb(47, 46, 65);"/></g></g><g id="shape-79177ed8-4585-8042-8002-261f7a240dd7"><g class="fills" id="fills-79177ed8-4585-8042-8002-261f7a240dd7"><path rx="0" ry="0" d="M125.813,105.758L95.867,105.758L95.867,92.705C102.440,90.094,108.872,87.873,112.760,92.705C119.969,92.705,125.813,98.549,125.813,105.758ZZ" style="fill: rgb(47, 46, 65);"/></g></g><g id="shape-79177ed8-4585-8042-8002-261f7a2456fb"><g class="fills" id="fills-79177ed8-4585-8042-8002-261f7a2456fb"><path rx="0" ry="0" d="M101.209,91.401C83.308,91.480,78.297,113.841,78.297,126.500C78.297,133.560,81.490,136.085,86.507,136.939L88.279,127.489L92.429,137.346C93.838,137.353,95.318,137.326,96.853,137.297L98.260,134.400L101.398,137.245C113.965,137.264,132.227,136.142,124.122,126.500C113.264,113.583,116.813,91.332,101.209,91.401ZZ" style="fill: rgb(47, 46, 65);"/></g></g><g id="shape-79177ed8-4585-8042-8002-261f7a24a4eb"><g class="fills" id="fills-79177ed8-4585-8042-8002-261f7a24a4eb"><path rx="0" ry="0" d="M921.778,161.672C920.986,158.675,920.868,155.541,921.431,152.493C922.266,146.608,924.145,140.930,925.863,135.239C927.581,129.548,929.156,123.745,929.355,117.804C929.553,111.863,928.265,105.704,924.723,100.930C921.180,96.156,915.140,93.028,909.264,93.926C903.649,94.783,898.746,99.848,898.717,105.467C897.712,107.286,899.010,109.769,900.859,110.848C902.798,111.979,905.136,112.130,907.287,112.773C911.555,114.154,915.055,117.251,916.944,121.320C918.789,125.384,919.280,129.933,918.344,134.297C917.497,138.526,915.549,142.439,914.088,146.497C912.627,150.555,911.651,155.010,912.824,159.160C914.839,165.497,921.214,169.382,927.770,168.267C924.835,167.150,922.609,164.700,921.778,161.672ZZ" style="fill: rgb(47, 46, 65);"/></g></g><g id="shape-79177ed8-4585-8042-8002-261f7a24f404"><g class="fills" id="fills-79177ed8-4585-8042-8002-261f7a24f404"><path rx="0" ry="0" d="M996.000,420.619L1.000,420.619C0.448,420.619,0.000,420.171,0.000,419.619C0.000,419.066,0.448,418.619,1.000,418.619L996.000,418.619C996.552,418.619,997.000,419.066,997.000,419.619C997.000,420.171,996.552,420.619,996.000,420.619ZZ" style="fill: rgb(202, 202, 202);"/></g></g><g id="shape-79177ed8-4585-8042-8002-261f7a250027"><g class="fills" id="fills-79177ed8-4585-8042-8002-261f7a250027"><path rx="0" ry="0" d="M768.964,372.003C767.024,356.400,757.354,341.027,742.473,335.949C748.342,352.009,748.341,369.627,742.470,385.686C740.183,391.871,736.996,398.512,739.147,404.745C740.485,408.624,743.759,411.591,747.418,413.447C751.078,415.302,755.139,416.187,759.150,417.053L759.939,417.706C766.306,403.330,770.904,387.606,768.964,372.003ZZ" style="fill: rgb(185, 115, 36); fill-opacity: 1;"/></g></g><g id="shape-79177ed8-4585-8042-8002-261f7a2588c8"><g class="fills" id="fills-79177ed8-4585-8042-8002-261f7a2588c8"><path rx="0" ry="0" d="M742.326,336.244C750.991,345.954,756.377,358.147,757.719,371.092C758.057,373.874,757.954,376.691,757.415,379.441C756.803,382.102,755.490,384.552,753.612,386.534C751.897,388.418,749.926,390.146,748.699,392.413C747.464,394.780,747.297,397.561,748.241,400.058C749.324,403.164,751.459,405.696,753.632,408.099C756.046,410.768,758.594,413.501,759.620,417.039C759.744,417.467,760.402,417.249,760.278,416.821C758.493,410.666,752.519,407.170,749.669,401.627C748.340,399.040,747.782,396.037,749.028,393.306C750.118,390.918,752.150,389.134,753.902,387.242C755.763,385.335,757.128,383.002,757.879,380.445C758.557,377.732,758.768,374.923,758.503,372.139C758.006,365.861,756.526,359.701,754.115,353.883C751.401,347.229,747.569,341.087,742.784,335.725C742.488,335.393,742.031,335.915,742.326,336.244ZZ" style="fill: rgb(255, 255, 255);"/></g></g><g id="shape-79177ed8-4585-8042-8002-261f7a2588c9"><g class="fills" id="fills-79177ed8-4585-8042-8002-261f7a2588c9"><path rx="0" ry="0" d="M757.532,366.898C761.955,365.825,764.948,361.705,764.603,357.167C764.568,356.723,763.876,356.757,763.911,357.202C764.240,361.428,761.440,365.265,757.315,366.240C756.881,366.343,757.101,367.001,757.532,366.898ZZ" style="fill: rgb(255, 255, 255);"/></g></g><g id="shape-79177ed8-4585-8042-8002-261f7a25e479"><g class="fills" id="fills-79177ed8-4585-8042-8002-261f7a25e479"><path rx="0" ry="0" d="M754.607,385.694C750.739,383.384,747.884,379.702,746.611,375.382C746.485,374.953,745.827,375.171,745.953,375.599C747.286,380.093,750.265,383.918,754.295,386.312C754.679,386.540,754.989,385.920,754.607,385.694ZZ" style="fill: rgb(255, 255, 255);"/></g></g><g id="shape-79177ed8-4585-8042-8002-261f7a263a09"><g class="fills" id="fills-79177ed8-4585-8042-8002-261f7a263a09"><path rx="0" ry="0" d="M750.759,347.885C749.161,348.644,747.288,348.549,745.775,347.632C745.394,347.399,745.085,348.020,745.464,348.251C747.139,349.256,749.204,349.366,750.976,348.543C751.153,348.478,751.250,348.287,751.196,348.105C751.135,347.924,750.940,347.826,750.759,347.885ZZ" style="fill: rgb(255, 255, 255);"/></g></g><g id="shape-79177ed8-4585-8042-8002-261f7a26aca5"><g class="fills" id="fills-79177ed8-4585-8042-8002-261f7a26aca5"><path rx="0" ry="0" d="M697.116,363.818C697.350,363.970,697.584,364.122,697.818,364.280C700.952,366.341,703.913,368.653,706.673,371.193C706.889,371.386,707.105,371.585,707.316,371.784C713.899,377.975,719.275,385.334,723.171,393.487C724.719,396.733,726.017,400.092,727.055,403.535C728.488,408.290,729.663,413.560,732.500,417.449C732.791,417.858,733.108,418.249,733.447,418.619L759.081,418.619C759.140,418.589,759.198,418.566,759.257,418.537L760.280,418.583C760.239,418.402,760.193,418.215,760.151,418.034C760.128,417.928,760.099,417.823,760.075,417.718C760.058,417.648,760.040,417.577,760.029,417.513C760.023,417.490,760.017,417.466,760.011,417.449C759.999,417.385,759.982,417.326,759.970,417.268C759.713,416.221,759.448,415.174,759.175,414.127C759.175,414.121,759.175,414.121,759.169,414.115C757.166,406.118,754.221,398.387,750.396,391.084C750.279,390.867,750.162,390.645,750.034,390.429C748.262,387.196,746.230,384.113,743.957,381.211C742.707,379.627,741.378,378.106,739.974,376.655C736.340,372.915,732.140,369.769,727.528,367.333C718.334,362.479,707.690,360.619,697.865,363.584C697.613,363.660,697.367,363.736,697.116,363.818ZZ" style="fill: rgb(185, 115, 36); fill-opacity: 1;"/></g></g><g id="shape-79177ed8-4585-8042-8002-261f7a2712ca"><g class="fills" id="fills-79177ed8-4585-8042-8002-261f7a2712ca"><path rx="0" ry="0" d="M697.174,364.143C709.939,366.679,721.580,373.171,730.445,382.700C732.389,384.717,734.004,387.028,735.229,389.548C736.343,392.042,736.769,394.788,736.463,397.502C736.228,400.038,735.694,402.605,736.080,405.154C736.519,407.787,738.060,410.108,740.317,411.533C743.052,413.361,746.281,414.097,749.463,414.708C752.996,415.385,756.677,416.033,759.626,418.241C759.983,418.508,760.377,417.938,760.021,417.671C754.890,413.831,748.014,414.637,742.402,411.926C739.783,410.661,737.529,408.599,736.880,405.668C736.313,403.106,736.861,400.458,737.121,397.892C737.459,395.249,737.144,392.564,736.204,390.071C735.112,387.496,733.589,385.127,731.701,383.063C727.525,378.350,722.634,374.323,717.207,371.129C711.033,367.449,704.276,364.853,697.227,363.452C696.791,363.366,696.740,364.057,697.174,364.143ZZ" style="fill: rgb(255, 255, 255);"/></g></g><g id="shape-79177ed8-4585-8042-8002-261f7a276f80"><g class="fills" id="fills-79177ed8-4585-8042-8002-261f7a276f80"><path rx="0" ry="0" d="M727.771,379.463C730.656,375.943,730.565,370.852,727.558,367.436C727.262,367.103,726.730,367.547,727.026,367.881C729.834,371.057,729.908,375.806,727.201,379.069C726.917,379.412,727.488,379.805,727.771,379.463ZZ" style="fill: rgb(255, 255, 255);"/></g></g><g id="shape-79177ed8-4585-8042-8002-261f7a276f81"><g class="fills" id="fills-79177ed8-4585-8042-8002-261f7a276f81"><path rx="0" ry="0" d="M736.751,396.232C732.273,396.716,727.776,395.495,724.158,392.812C723.800,392.546,723.406,393.116,723.764,393.382C727.534,396.167,732.216,397.428,736.875,396.913C737.319,396.864,737.193,396.182,736.751,396.232ZZ" style="fill: rgb(255, 255, 255);"/></g></g><g id="shape-79177ed8-4585-8042-8002-261f7a27b3b6"><g class="fills" id="fills-79177ed8-4585-8042-8002-261f7a27b3b6"><path rx="0" ry="0" d="M710.915,368.361C710.097,369.929,708.544,370.980,706.784,371.159C706.340,371.202,706.467,371.884,706.908,371.841C708.851,371.634,710.565,370.479,711.485,368.755C711.588,368.596,711.549,368.385,711.398,368.273C711.240,368.165,711.025,368.204,710.915,368.361ZZ" style="fill: rgb(255, 255, 255);"/></g></g><g id="shape-79177ed8-4585-8042-8002-261f7a27f97e"><g class="fills" id="fills-79177ed8-4585-8042-8002-261f7a27f97e"><path rx="0" ry="0" d="M192.094,372.003C194.034,356.400,203.704,341.027,218.584,335.949C212.716,352.009,212.717,369.627,218.588,385.686C220.874,391.871,224.061,398.512,221.911,404.745C220.572,408.624,217.299,411.591,213.639,413.447C209.980,415.302,205.918,416.187,201.908,417.053L201.119,417.706C194.752,403.330,190.153,387.606,192.094,372.003ZZ" style="fill: rgb(185, 115, 36); fill-opacity: 1;"/></g></g><g id="shape-79177ed8-4585-8042-8002-261f7a287f97"><g class="fills" id="fills-79177ed8-4585-8042-8002-261f7a287f97"><path rx="0" ry="0" d="M218.732,336.244C210.066,345.954,204.680,358.147,203.339,371.092C203.001,373.874,203.103,376.691,203.642,379.441C204.254,382.102,205.567,384.552,207.446,386.534C209.160,388.418,211.132,390.146,212.359,392.413C213.594,394.780,213.760,397.561,212.816,400.058C211.733,403.164,209.599,405.696,207.425,408.099C205.012,410.768,202.463,413.501,201.437,417.039C201.313,417.467,200.655,417.249,200.779,416.821C202.564,410.666,208.539,407.170,211.388,401.627C212.718,399.040,213.276,396.037,212.030,393.306C210.940,390.918,208.908,389.134,207.156,387.242C205.295,385.335,203.929,383.002,203.178,380.445C202.501,377.732,202.290,374.923,202.555,372.139C203.051,365.861,204.532,359.701,206.942,353.883C209.656,347.229,213.488,341.087,218.273,335.725C218.570,335.393,219.026,335.915,218.732,336.244ZZ" style="fill: rgb(255, 255, 255);"/></g></g><g id="shape-79177ed8-4585-8042-8002-261f7a287f98"><g class="fills" id="fills-79177ed8-4585-8042-8002-261f7a287f98"><path rx="0" ry="0" d="M203.526,366.898C199.103,365.825,196.109,361.705,196.454,357.167C196.490,356.723,197.182,356.757,197.147,357.202C196.818,361.428,199.617,365.265,203.743,366.240C204.177,366.343,203.957,367.001,203.526,366.898ZZ" style="fill: rgb(255, 255, 255);"/></g></g><g id="shape-79177ed8-4585-8042-8002-261f7a28b87c"><g class="fills" id="fills-79177ed8-4585-8042-8002-261f7a28b87c"><path rx="0" ry="0" d="M206.451,385.694C210.318,383.384,213.173,379.702,214.447,375.382C214.572,374.953,215.230,375.171,215.105,375.599C213.771,380.093,210.792,383.918,206.763,386.312C206.378,386.540,206.069,385.920,206.451,385.694ZZ" style="fill: rgb(255, 255, 255);"/></g></g><g id="shape-79177ed8-4585-8042-8002-261f7a28cdec"><g class="fills" id="fills-79177ed8-4585-8042-8002-261f7a28cdec"><path rx="0" ry="0" d="M210.299,347.885C211.897,348.644,213.769,348.549,215.282,347.632C215.663,347.399,215.973,348.020,215.594,348.251C213.919,349.256,211.854,349.366,210.082,348.543C209.904,348.478,209.808,348.287,209.861,348.105C209.922,347.924,210.117,347.826,210.299,347.885ZZ" style="fill: rgb(255, 255, 255);"/></g></g><g id="shape-79177ed8-4585-8042-8002-261f7a296c52"><g class="fills" id="fills-79177ed8-4585-8042-8002-261f7a296c52"><path rx="0" ry="0" d="M263.941,363.818C263.708,363.970,263.474,364.122,263.239,364.280C260.106,366.341,257.144,368.653,254.385,371.193C254.169,371.386,253.952,371.585,253.742,371.784C247.159,377.975,241.783,385.334,237.886,393.487C236.339,396.733,235.041,400.092,234.003,403.535C232.570,408.290,231.394,413.560,228.558,417.449C228.266,417.858,227.950,418.249,227.610,418.619L201.976,418.619C201.918,418.589,201.859,418.566,201.801,418.537L200.777,418.583C200.819,418.402,200.865,418.215,200.906,418.034C200.930,417.928,200.959,417.823,200.982,417.718C201.000,417.648,201.017,417.577,201.029,417.513C201.035,417.490,201.041,417.466,201.046,417.449C201.058,417.385,201.076,417.326,201.088,417.268C201.345,416.221,201.610,415.174,201.883,414.127C201.883,414.121,201.883,414.121,201.889,414.115C203.892,406.118,206.837,398.387,210.661,391.084C210.778,390.867,210.895,390.645,211.024,390.429C212.795,387.196,214.827,384.113,217.101,381.211C218.351,379.627,219.680,378.106,221.084,376.655C224.718,372.915,228.917,369.769,233.529,367.333C242.723,362.479,253.367,360.619,263.193,363.584C263.444,363.660,263.690,363.736,263.941,363.818ZZ" style="fill: rgb(185, 115, 36); fill-opacity: 1;"/></g></g><g id="shape-79177ed8-4585-8042-8002-261f7a29b2a7"><g class="fills" id="fills-79177ed8-4585-8042-8002-261f7a29b2a7"><path rx="0" ry="0" d="M263.884,364.143C251.119,366.679,239.478,373.171,230.613,382.700C228.668,384.717,227.054,387.028,225.829,389.548C224.714,392.042,224.289,394.788,224.595,397.502C224.830,400.038,225.363,402.605,224.978,405.154C224.539,407.787,222.998,410.108,220.740,411.533C218.006,413.361,214.777,414.097,211.595,414.708C208.061,415.385,204.380,416.033,201.431,418.241C201.074,418.508,200.680,417.938,201.037,417.671C206.168,413.831,213.043,414.637,218.656,411.926C221.275,410.661,223.529,408.599,224.177,405.668C224.745,403.106,224.197,400.458,223.937,397.892C223.599,395.249,223.914,392.564,224.853,390.071C225.946,387.496,227.469,385.127,229.357,383.063C233.533,378.350,238.424,374.323,243.851,371.129C250.024,367.449,256.781,364.853,263.831,363.452C264.267,363.366,264.317,364.057,263.884,364.143ZZ" style="fill: rgb(255, 255, 255);"/></g></g><g id="shape-79177ed8-4585-8042-8002-261f7a29d402"><g class="fills" id="fills-79177ed8-4585-8042-8002-261f7a29d402"><path rx="0" ry="0" d="M233.287,379.463C230.402,375.943,230.492,370.852,233.500,367.436C233.795,367.103,234.328,367.547,234.032,367.881C231.224,371.057,231.150,375.806,233.856,379.069C234.141,379.412,233.569,379.805,233.287,379.463ZZ" style="fill: rgb(255, 255, 255);"/></g></g><g id="shape-79177ed8-4585-8042-8002-261f7a2a305e"><g class="fills" id="fills-79177ed8-4585-8042-8002-261f7a2a305e"><path rx="0" ry="0" d="M224.306,396.232C228.785,396.716,233.281,395.495,236.899,392.812C237.257,392.546,237.652,393.116,237.294,393.382C233.524,396.167,228.842,397.428,224.183,396.913C223.739,396.864,223.865,396.182,224.306,396.232ZZ" style="fill: rgb(255, 255, 255);"/></g></g><g id="shape-79177ed8-4585-8042-8002-261f7a2a73a5"><g class="fills" id="fills-79177ed8-4585-8042-8002-261f7a2a73a5"><path rx="0" ry="0" d="M250.142,368.361C250.961,369.929,252.513,370.980,254.273,371.159C254.718,371.202,254.591,371.884,254.149,371.841C252.207,371.634,250.492,370.479,249.572,368.755C249.470,368.596,249.508,368.385,249.660,368.273C249.818,368.165,250.033,368.204,250.142,368.361ZZ" style="fill: rgb(255, 255, 255);"/></g></g></g></svg>