<svg xmlns:xlink="http://www.w3.org/1999/xlink" width="993" xmlns="http://www.w3.org/2000/svg" height="419" id="screenshot-79177ed8-4585-8042-8002-261f7a13fb12" viewBox="0 0 993 419" style="-webkit-print-color-adjust: exact;" fill="none" version="1.1"><g id="shape-79177ed8-4585-8042-8002-261f7a13fb12" width="997" height="420.61854" xmlns:xlink="http://www.w3.org/1999/xlink" rx="0" ry="0" style="fill: rgb(0, 0, 0);"><g id="shape-79177ed8-4585-8042-8002-261f7a1ab50e"><g class="fills" id="fills-79177ed8-4585-8042-8002-261f7a1ab50e"><path rx="0" ry="0" d="M848.034,407.522L836.719,407.522L831.335,363.866L848.036,363.867L848.034,407.522ZZ" style="fill: rgb(160, 97, 106);"/></g></g><g id="shape-79177ed8-4585-8042-8002-261f7a1ad5a4"><g class="fills" id="fills-79177ed8-4585-8042-8002-261f7a1ad5a4"><path rx="0" ry="0" d="M850.920,418.493L814.432,418.492L814.432,418.030C814.433,410.185,820.791,403.826,828.634,403.826L828.635,403.826L850.921,403.827Z" style="fill: rgb(47, 46, 65);"/></g></g><g id="shape-79177ed8-4585-8042-8002-261f7a1ad5a5"><g class="fills" id="fills-79177ed8-4585-8042-8002-261f7a1ad5a5"><path rx="0" ry="0" d="M936.145,402.623L924.956,404.314L913.109,361.955L927.777,359.458L936.145,402.623ZZ" style="fill: rgb(160, 97, 106);"/></g></g><g id="shape-79177ed8-4585-8042-8002-261f7a1b3bde"><g class="fills" id="fills-79177ed8-4585-8042-8002-261f7a1b3bde"><path rx="0" ry="0" d="M940.638,413.039L904.560,418.493L904.491,418.037C903.320,410.280,908.656,403.042,916.411,401.869L916.412,401.869L938.447,398.537Z" style="fill: rgb(47, 46, 65);"/></g></g><g id="shape-79177ed8-4585-8042-8002-261f7a1b46c7"><g class="fills" id="fills-79177ed8-4585-8042-8002-261f7a1b46c7"><path rx="0" ry="0" d="M613.369,418.493L275.240,418.493L275.240,80.308L613.369,80.308Z" style="fill: rgb(255, 255, 255);"/></g></g><g id="shape-79177ed8-4585-8042-8002-261f7a1bbf54"><g class="fills" id="fills-79177ed8-4585-8042-8002-261f7a1bbf54"><path rx="0" ry="0" d="M613.369,418.493L275.240,418.493L275.240,80.308L613.369,80.308ZM280.236,413.496L608.373,413.496L608.373,85.305L280.236,85.305Z" style="fill: rgb(109, 175, 254);"/></g></g><g id="shape-79177ed8-4585-8042-8002-261f7a1bbf55"><g class="fills" id="fills-79177ed8-4585-8042-8002-261f7a1bbf55"><rect rx="0" ry="0" x="344.95749312938824" y="225.6896017707636" transform="matrix(1.000000, 0.000000, 0.000000, 1.000000, 0.000000, 0.000000)" width="216.85284394182554" height="7.656274851793228" style="fill: rgb(67, 127, 199);"/></g></g><g id="shape-79177ed8-4585-8042-8002-261f7a1bbf56"><g class="fills" id="fills-79177ed8-4585-8042-8002-261f7a1bbf56"><rect rx="0" ry="0" x="344.95749312938824" y="245.5959163854261" transform="matrix(1.000000, 0.000000, 0.000000, 1.000000, 0.000000, 0.000000)" width="216.85284394182554" height="7.656274851793228" style="fill: rgb(67, 127, 199);"/></g></g><g id="shape-79177ed8-4585-8042-8002-261f7a1bfc9f"><g class="fills" id="fills-79177ed8-4585-8042-8002-261f7a1bfc9f"><rect rx="0" ry="0" x="344.95749312938824" y="265.5022310000886" transform="matrix(1.000000, 0.000000, 0.000000, 1.000000, 0.000000, 0.000000)" width="216.85284394182554" height="7.656274851793228" style="fill: rgb(67, 127, 199);"/></g></g><g id="shape-79177ed8-4585-8042-8002-261f7a1bfca0"><g class="fills" id="fills-79177ed8-4585-8042-8002-261f7a1bfca0"><ellipse rx="4.995825827482406" ry="4.996648626092394" cx="331.7946357171516" cy="230.63943125284032" transform="matrix(1.000000, 0.000000, 0.000000, 1.000000, 0.000000, 0.000000)" style="fill: rgb(67, 127, 199);"/></g></g><g id="shape-79177ed8-4585-8042-8002-261f7a1bfca1"><g class="fills" id="fills-79177ed8-4585-8042-8002-261f7a1bfca1"><rect rx="0" ry="0" x="344.95749312938824" y="139.91379205491035" transform="matrix(1.000000, 0.000000, 0.000000, 1.000000, 0.000000, 0.000000)" width="216.85284394182554" height="7.656274851793341" style="fill: rgb(240, 240, 240);"/></g></g><g id="shape-79177ed8-4585-8042-8002-261f7a1bfca2"><g class="fills" id="fills-79177ed8-4585-8042-8002-261f7a1bfca2"><rect rx="0" ry="0" x="344.95749312938824" y="159.82010666957285" transform="matrix(1.000000, 0.000000, 0.000000, 1.000000, 0.000000, 0.000000)" width="216.85284394182554" height="7.656274851793228" style="fill: rgb(240, 240, 240);"/></g></g><g id="shape-79177ed8-4585-8042-8002-261f7a1c0038"><g class="fills" id="fills-79177ed8-4585-8042-8002-261f7a1c0038"><rect rx="0" ry="0" x="344.95749312938824" y="179.72642128423524" transform="matrix(1.000000, 0.000000, 0.000000, 1.000000, 0.000000, 0.000000)" width="216.85284394182554" height="7.656274851793341" style="fill: rgb(240, 240, 240);"/></g></g><g id="shape-79177ed8-4585-8042-8002-261f7a1c0039"><g class="fills" id="fills-79177ed8-4585-8042-8002-261f7a1c0039"><ellipse rx="4.995825827482406" ry="4.996648626092451" cx="331.7946357171516" cy="144.03085838774496" transform="matrix(1.000000, 0.000000, 0.000000, 1.000000, 0.000000, 0.000000)" style="fill: rgb(240, 240, 240);"/></g></g><g id="shape-79177ed8-4585-8042-8002-261f7a1c003a"><g class="fills" id="fills-79177ed8-4585-8042-8002-261f7a1c003a"><rect rx="0" ry="0" x="344.95749312938824" y="312.2981845973791" transform="matrix(1.000000, 0.000000, 0.000000, 1.000000, 0.000000, 0.000000)" width="216.85284394182554" height="7.656274851793228" style="fill: rgb(240, 240, 240);"/></g></g><g id="shape-79177ed8-4585-8042-8002-261f7a1c5131"><g class="fills" id="fills-79177ed8-4585-8042-8002-261f7a1c5131"><rect rx="0" ry="0" x="344.95749312938824" y="332.2044992120416" transform="matrix(1.000000, 0.000000, 0.000000, 1.000000, 0.000000, 0.000000)" width="216.85284394182554" height="7.656274851793228" style="fill: rgb(240, 240, 240);"/></g></g><g id="shape-79177ed8-4585-8042-8002-261f7a1c5132"><g class="fills" id="fills-79177ed8-4585-8042-8002-261f7a1c5132"><rect rx="0" ry="0" x="344.95749312938824" y="352.1108038651839" transform="matrix(1.000000, 0.000000, 0.000000, 1.000000, 0.000000, 0.000000)" width="216.85284394182554" height="7.656274851793228" style="fill: rgb(240, 240, 240);"/></g></g><g id="shape-79177ed8-4585-8042-8002-261f7a1c5133"><g class="fills" id="fills-79177ed8-4585-8042-8002-261f7a1c5133"><ellipse rx="4.995825827482406" ry="4.996648626092394" cx="331.7946357171516" cy="316.4152409686936" transform="matrix(1.000000, 0.000000, 0.000000, 1.000000, 0.000000, 0.000000)" style="fill: rgb(229, 229, 229);"/></g></g><g id="shape-79177ed8-4585-8042-8002-261f7a1cb8ef"><g class="fills" id="fills-79177ed8-4585-8042-8002-261f7a1cb8ef"><path rx="0" ry="0" d="M794.876,284.900L598.135,284.900C595.188,284.892,592.799,280.005,592.795,273.972L592.795,127.583C592.795,121.550,595.188,116.665,598.135,116.655L794.876,116.655C797.823,116.662,800.212,121.549,800.216,127.583L800.216,273.970C800.212,280.003,797.819,284.892,794.876,284.900ZZ" style="fill: rgb(255, 255, 255);"/></g></g><g id="shape-79177ed8-4585-8042-8002-261f7a1d0f16"><g class="fills" id="fills-79177ed8-4585-8042-8002-261f7a1d0f16"><path rx="0" ry="0" d="M794.876,284.900L598.135,284.900C595.188,284.892,592.799,280.005,592.795,273.972L592.795,127.583C592.795,121.550,595.188,116.665,598.135,116.655L794.876,116.655C797.823,116.662,800.212,121.549,800.216,127.583L800.216,273.970C800.212,280.003,797.819,284.892,794.876,284.900ZZM598.135,121.026C596.366,121.026,594.933,123.964,594.930,127.583L594.930,273.970C594.930,277.590,596.366,280.524,598.135,280.527L794.876,280.527C796.645,280.527,798.078,277.591,798.080,273.970L798.080,127.583C798.080,123.964,796.645,121.030,794.876,121.026Z" style="fill: rgb(109, 175, 254);"/></g></g><g id="shape-79177ed8-4585-8042-8002-261f7a1d0f17"><g class="fills" id="fills-79177ed8-4585-8042-8002-261f7a1d0f17"><rect rx="0" ry="0" x="670.1848630892678" y="236.01629117442133" transform="matrix(1.000000, 0.000000, 0.000000, 1.000000, 0.000000, 0.000000)" width="52.95787522567707" height="3.981091584788601" style="fill: rgb(67, 127, 199);"/></g></g><g id="shape-79177ed8-4585-8042-8002-261f7a1d0f18"><g class="fills" id="fills-79177ed8-4585-8042-8002-261f7a1d0f18"><rect rx="0" ry="0" x="663.0991059177531" y="246.36091131408523" transform="matrix(1.000000, 0.000000, 0.000000, 1.000000, 0.000000, 0.000000)" width="66.64768994984934" height="3.981091584788601" style="fill: rgb(67, 127, 199);"/></g></g><g id="shape-79177ed8-4585-8042-8002-261f7a1d563d"><g class="fills" id="fills-79177ed8-4585-8042-8002-261f7a1d563d"><path rx="0" ry="0" d="M731.084,185.797C731.079,197.968,724.680,209.242,714.233,215.485C703.786,221.727,690.827,222.019,680.109,216.254L680.102,216.248C665.216,208.226,658.312,190.614,663.782,174.611C669.252,158.607,685.491,148.908,702.172,151.680C718.853,154.453,731.083,168.884,731.084,185.797ZZ" style="fill: rgb(202, 202, 202);"/></g></g><g id="shape-79177ed8-4585-8042-8002-261f7a1db4f9"><g class="fills" id="fills-79177ed8-4585-8042-8002-261f7a1db4f9"><ellipse rx="9.399985005015196" ry="9.40153315638446" cx="696.6815392477431" cy="174.7163544906985" transform="matrix(1.000000, 0.000000, 0.000000, 1.000000, 0.000000, 0.000000)" style="fill: rgb(255, 255, 255);"/></g></g><g id="shape-79177ed8-4585-8042-8002-261f7a1dd93a"><g class="fills" id="fills-79177ed8-4585-8042-8002-261f7a1dd93a"><path rx="0" ry="0" d="M712.732,203.544C702.223,207.233,690.765,207.189,680.285,203.418L680.279,203.413L687.282,189.588L706.082,189.588Z" style="fill: rgb(255, 255, 255);"/></g></g><g id="shape-79177ed8-4585-8042-8002-261f7a1e2c28"><g class="fills" id="fills-79177ed8-4585-8042-8002-261f7a1e2c28"><path rx="0" ry="0" d="M557.897,337.244L705.518,337.244L705.518,272.506L703.246,272.506L703.246,334.972L557.897,334.972L557.897,337.244ZZ" style="fill: rgb(63, 61, 86);"/></g></g><g id="shape-79177ed8-4585-8042-8002-261f7a1e2c29"><g class="fills" id="fills-79177ed8-4585-8042-8002-261f7a1e2c29"><ellipse rx="12.491033650952772" ry="12.493090889431585" cx="704.3824285456366" cy="282.99589535449394" transform="matrix(1.000000, 0.000000, 0.000000, 1.000000, 0.000000, 0.000000)" style="fill: rgb(63, 61, 86);"/></g></g><g id="shape-79177ed8-4585-8042-8002-261f7a1e625e"><g class="fills" id="fills-79177ed8-4585-8042-8002-261f7a1e625e"><path rx="0" ry="0" d="M284.930,195.246L88.189,195.246C85.242,195.239,82.853,190.352,82.849,184.318L82.849,37.929C82.849,31.897,85.242,27.011,88.189,27.001L284.930,27.001C287.877,27.009,290.266,31.895,290.270,37.929L290.270,184.317C290.266,190.349,287.873,195.239,284.930,195.246ZZ" style="fill: rgb(255, 255, 255);"/></g></g><g id="shape-79177ed8-4585-8042-8002-261f7a1eaab5"><g class="fills" id="fills-79177ed8-4585-8042-8002-261f7a1eaab5"><path rx="0" ry="0" d="M284.930,195.246L88.189,195.246C85.242,195.239,82.853,190.352,82.849,184.318L82.849,37.929C82.849,31.897,85.242,27.011,88.189,27.001L284.930,27.001C287.877,27.009,290.266,31.895,290.270,37.929L290.270,184.317C290.266,190.349,287.873,195.239,284.930,195.246ZZM88.189,31.372C86.420,31.372,84.987,34.310,84.984,37.929L84.984,184.317C84.984,187.936,86.420,190.870,88.189,190.874L284.930,190.874C286.699,190.874,288.132,187.937,288.135,184.317L288.135,37.929C288.135,34.310,286.699,31.376,284.930,31.372Z" style="fill: rgb(109, 175, 254);"/></g></g><g id="shape-79177ed8-4585-8042-8002-261f7a1efd60"><g class="fills" id="fills-79177ed8-4585-8042-8002-261f7a1efd60"><path rx="0" ry="0" d="M230.236,72.734C221.481,63.437,209.430,57.947,196.671,57.443L196.671,106.305Z" style="fill: rgb(63, 61, 86);"/></g></g><g id="shape-79177ed8-4585-8042-8002-261f7a1efd61"><g class="fills" id="fills-79177ed8-4585-8042-8002-261f7a1efd61"><path rx="0" ry="0" d="M230.236,78.818L196.671,112.389L243.579,112.389C243.596,99.902,238.820,87.885,230.236,78.818ZZ" style="fill: rgb(228, 228, 228);"/></g></g><g id="shape-79177ed8-4585-8042-8002-261f7a1f5b9c"><g class="fills" id="fills-79177ed8-4585-8042-8002-261f7a1f5b9c"><path rx="0" ry="0" d="M243.629,115.900C243.631,118.945,243.350,121.984,242.788,124.978C242.744,125.215,242.698,125.449,242.650,125.684C241.591,130.905,239.679,135.916,236.991,140.516C236.848,140.762,236.701,141.009,236.553,141.251L236.553,141.253C233.904,145.613,230.592,149.532,226.735,152.871C226.544,153.038,226.353,153.202,226.159,153.364C217.871,160.339,207.493,164.349,196.670,164.761L196.670,115.900Z" style="fill: rgb(240, 240, 240);"/></g></g><g id="shape-79177ed8-4585-8042-8002-261f7a1f8b02"><g class="fills" id="fills-79177ed8-4585-8042-8002-261f7a1f8b02"><path rx="0" ry="0" d="M191.925,164.804C192.574,164.804,193.220,164.788,193.863,164.762L193.863,115.899L158.333,151.434C167.402,160.034,179.428,164.821,191.925,164.804ZZ" style="fill: rgb(202, 202, 202);"/></g></g><g id="shape-79177ed8-4585-8042-8002-261f7a1f8b03"><g class="fills" id="fills-79177ed8-4585-8042-8002-261f7a1f8b03"><path rx="0" ry="0" d="M191.991,63.483C179.023,63.483,166.586,68.636,157.416,77.807C148.246,86.979,143.094,99.418,143.094,112.389L193.980,112.389L193.980,63.527C193.320,63.501,192.658,63.483,191.991,63.483ZZ" style="fill: rgb(185, 115, 36); fill-opacity: 1;"/></g></g><g id="shape-79177ed8-4585-8042-8002-261f7a1fe6ea"><g class="fills" id="fills-79177ed8-4585-8042-8002-261f7a1fe6ea"><path rx="0" ry="0" d="M180.326,115.900L170.046,126.182L169.709,126.518L169.702,126.526L160.737,135.490L160.396,135.831L150.711,145.518L150.370,145.859L150.370,145.861L144.795,151.434C135.012,142.207,129.474,129.349,129.489,115.900Z" style="fill: rgb(185, 115, 36); fill-opacity: 1;"/></g></g><g id="shape-79177ed8-4585-8042-8002-261f7a2000be"><g class="fills" id="fills-79177ed8-4585-8042-8002-261f7a2000be"><path rx="0" ry="0" d="M345.521,249.583L197.901,249.583L197.901,184.845L200.172,184.845L200.172,247.311L345.521,247.311L345.521,249.583ZZ" style="fill: rgb(63, 61, 86);"/></g></g><g id="shape-79177ed8-4585-8042-8002-261f7a2000bf"><g class="fills" id="fills-79177ed8-4585-8042-8002-261f7a2000bf"><ellipse rx="12.491033650952943" ry="12.493090889431585" cx="199.03599373119374" cy="195.33451932480187" transform="matrix(1.000000, 0.000000, 0.000000, 1.000000, 0.000000, 0.000000)" style="fill: rgb(63, 61, 86);"/></g></g><g id="shape-79177ed8-4585-8042-8002-261f7a20bfdf"><g class="fills" id="fills-79177ed8-4585-8042-8002-261f7a20bfdf"><path rx="0" ry="0" d="M901.255,191.178L888.690,194.471L889.526,214.845L889.630,251.939C887.095,253.692,885.905,256.828,886.638,259.821C887.370,262.814,889.874,265.045,892.931,265.430C895.988,265.814,898.965,264.272,900.416,261.552C901.866,258.833,901.488,255.501,899.467,253.176L903.327,215.945Z" style="fill: rgb(160, 97, 106);"/></g></g><g id="shape-79177ed8-4585-8042-8002-261f7a20ff48"><g class="fills" id="fills-79177ed8-4585-8042-8002-261f7a20ff48"><path rx="0" ry="0" d="M904.770,203.429L886.405,197.244L886.362,196.967C886.335,196.793,883.641,179.396,883.674,167.461C883.600,164.770,884.715,162.183,886.722,160.389C889.541,157.816,893.618,157.160,897.101,158.719C900.821,160.253,903.300,163.821,903.442,167.842Z" style="fill: rgb(228, 228, 228);"/></g></g><g id="shape-79177ed8-4585-8042-8002-261f7a210e15"><g class="fills" id="fills-79177ed8-4585-8042-8002-261f7a210e15"><path rx="0" ry="0" d="M870.604,201.722L842.514,194.450L829.530,238.188L829.068,401.127L850.548,400.993L859.528,269.114L916.755,390.973L939.831,388.203L889.526,257.574C889.526,257.574,892.295,234.495,883.526,222.955L885.372,210.954Z" style="fill: rgb(47, 46, 65);"/></g></g><g id="shape-79177ed8-4585-8042-8002-261f7a215f71"><g class="fills" id="fills-79177ed8-4585-8042-8002-261f7a215f71"><path rx="0" ry="0" d="M886.204,214.185L884.078,214.152L840.911,196.895L861.562,150.891L871.367,152.674L869.582,145.533L891.247,140.236L895.016,155.316L900.578,160.373C903.440,162.977,904.498,167.024,903.276,170.696L890.463,209.141C890.676,210.396,890.325,211.680,889.504,212.652C888.684,213.624,887.476,214.185,886.204,214.185ZZ" style="fill: rgb(228, 228, 228);"/></g></g><g id="shape-79177ed8-4585-8042-8002-261f7a21b30b"><g class="fills" id="fills-79177ed8-4585-8042-8002-261f7a21b30b"><path rx="0" ry="0" d="M853.740,179.738L842.384,173.433L828.911,188.738L803.355,215.621C800.312,215.137,797.286,216.580,795.747,219.250C794.209,221.920,794.476,225.263,796.421,227.654C798.365,230.045,801.583,230.988,804.510,230.025C807.437,229.062,809.466,226.392,809.611,223.314L838.126,199.072Z" style="fill: rgb(160, 97, 106);"/></g></g><g id="shape-79177ed8-4585-8042-8002-261f7a21e284"><g class="fills" id="fills-79177ed8-4585-8042-8002-261f7a21e284"><path rx="0" ry="0" d="M847.817,191.023L838.816,173.859L838.976,173.629C839.077,173.484,849.150,159.047,857.420,150.443C859.226,148.447,861.819,147.348,864.509,147.438C868.324,147.529,871.723,149.872,873.165,153.406C874.794,157.085,874.121,161.377,871.445,164.381Z" style="fill: rgb(228, 228, 228);"/></g></g><g id="shape-79177ed8-4585-8042-8002-261f7a222c2f"><g class="fills" id="fills-79177ed8-4585-8042-8002-261f7a222c2f"><ellipse rx="17.213301424272913" ry="17.216136407111264" cx="875.2178696690069" cy="120.2138701731979" transform="matrix(1.000000, 0.000000, 0.000000, 1.000000, 0.000000, 0.000000)" style="fill: rgb(160, 97, 106);"/></g></g><g id="shape-79177ed8-4585-8042-8002-261f7a2260a0"><g class="fills" id="fills-79177ed8-4585-8042-8002-261f7a2260a0"><path rx="0" ry="0" d="M854.504,110.119C857.399,104.936,858.506,102.771,862.239,99.619C865.539,96.832,869.599,96.013,872.873,98.654C880.827,95.217,890.094,97.409,895.667,104.045C901.240,110.682,901.797,120.190,897.037,127.432C892.277,134.674,883.330,137.933,875.028,135.448C866.727,132.963,861.041,125.324,861.041,116.657C861.044,115.916,861.089,115.176,861.175,114.439C858.328,114.040,857.350,110.519,854.504,110.119ZZ" style="fill: rgb(47, 46, 65);"/></g></g><g id="shape-79177ed8-4585-8042-8002-261f7a2260a1"><g class="fills" id="fills-79177ed8-4585-8042-8002-261f7a2260a1"><path rx="0" ry="0" d="M93.216,260.625C94.857,259.639,95.976,257.977,96.273,256.086C96.570,254.195,96.015,252.270,94.756,250.828L103.160,166.488L89.128,167.419L85.241,250.469C82.908,252.795,82.683,256.499,84.718,259.090C86.753,261.681,90.404,262.341,93.216,260.625ZZ" style="fill: rgb(255, 184, 184);"/></g></g><g id="shape-79177ed8-4585-8042-8002-261f7a228867"><g class="fills" id="fills-79177ed8-4585-8042-8002-261f7a228867"><path rx="0" ry="0" d="M83.443,163.364L87.122,191.329L86.611,208.468L102.044,209.881L105.137,195.626L106.841,157.888C107.108,151.983,102.764,146.876,96.893,146.194L96.893,146.194C90.785,145.483,85.236,149.806,84.430,155.903Z" style="fill: rgb(47, 46, 65);"/></g></g><g id="shape-79177ed8-4585-8042-8002-261f7a22fb41"><g class="fills" id="fills-79177ed8-4585-8042-8002-261f7a22fb41"><path rx="0" ry="0" d="M142.545,409.416L151.906,409.416L156.359,373.302L142.543,373.302L142.545,409.416ZZ" style="fill: rgb(255, 183, 183);"/></g></g><g id="shape-79177ed8-4585-8042-8002-261f7a2331aa"><g class="fills" id="fills-79177ed8-4585-8042-8002-261f7a2331aa"><path rx="0" ry="0" d="M140.157,406.360L158.593,406.359L158.594,406.359C165.082,406.360,170.342,411.620,170.343,418.110L170.343,418.492L140.157,418.493Z" style="fill: rgb(47, 46, 65);"/></g></g><g id="shape-79177ed8-4585-8042-8002-261f7a2331ab"><g class="fills" id="fills-79177ed8-4585-8042-8002-261f7a2331ab"><path rx="0" ry="0" d="M65.245,409.416L74.606,409.416L79.060,373.302L65.243,373.302L65.245,409.416ZZ" style="fill: rgb(255, 183, 183);"/></g></g><g id="shape-79177ed8-4585-8042-8002-261f7a236d85"><g class="fills" id="fills-79177ed8-4585-8042-8002-261f7a236d85"><path rx="0" ry="0" d="M62.857,406.360L81.293,406.359L81.294,406.359C87.782,406.360,93.042,411.620,93.043,418.110L93.043,418.492L62.857,418.493Z" style="fill: rgb(47, 46, 65);"/></g></g><g id="shape-79177ed8-4585-8042-8002-261f7a236d86"><g class="fills" id="fills-79177ed8-4585-8042-8002-261f7a236d86"><ellipse rx="20.296661043129347" ry="20.300003846715867" cx="101.64809142427282" cy="112.60072870301917" transform="matrix(1.000000, 0.000000, 0.000000, 1.000000, 0.000000, 0.000000)" style="fill: rgb(255, 184, 184);"/></g></g><g id="shape-79177ed8-4585-8042-8002-261f7a23a664"><g class="fills" id="fills-79177ed8-4585-8042-8002-261f7a23a664"><path rx="0" ry="0" d="M104.271,141.142L90.185,142.752L90.185,142.752C83.237,152.608,81.453,165.206,85.393,176.604L96.021,207.355C96.021,207.355,81.267,236.937,81.267,264.402C81.267,291.868,53.169,389.905,53.169,389.905L92.720,394.031L109.977,289.593L133.758,393.610L160.906,389.190L145.953,252.813L136.073,207.925L135.652,186.034C135.652,186.034,139.853,169.609,129.338,159.092L116.501,141.201Z" style="fill: rgb(47, 46, 65);"/></g></g><g id="shape-79177ed8-4585-8042-8002-261f7a23a665"><g class="fills" id="fills-79177ed8-4585-8042-8002-261f7a23a665"><path rx="0" ry="0" d="M203.568,213.456C203.485,211.361,202.478,209.410,200.818,208.128C199.158,206.847,197.016,206.366,194.968,206.817L118.374,154.322L111.879,168.297L189.611,215.771C190.617,219.238,194.057,221.405,197.618,220.814C201.179,220.223,203.735,217.062,203.568,213.456ZZ" style="fill: rgb(255, 184, 184);"/></g></g><g id="shape-79177ed8-4585-8042-8002-261f7a23fab8"><g class="fills" id="fills-79177ed8-4585-8042-8002-261f7a23fab8"><path rx="0" ry="0" d="M104.989,171.623L133.790,182.816L149.986,192.333L159.471,178.248L147.407,167.768L112.052,146.255C106.520,142.889,99.326,144.373,95.579,149.656L95.579,149.656C91.679,155.151,92.909,162.759,98.342,166.746Z" style="fill: rgb(47, 46, 65);"/></g></g><g id="shape-79177ed8-4585-8042-8002-261f7a240dd7"><g class="fills" id="fills-79177ed8-4585-8042-8002-261f7a240dd7"><path rx="0" ry="0" d="M125.308,105.351L95.483,105.351L95.483,92.348C102.029,89.747,108.435,87.535,112.307,92.348C119.487,92.348,125.308,98.170,125.308,105.351ZZ" style="fill: rgb(47, 46, 65);"/></g></g><g id="shape-79177ed8-4585-8042-8002-261f7a2456fb"><g class="fills" id="fills-79177ed8-4585-8042-8002-261f7a2456fb"><path rx="0" ry="0" d="M100.803,91.050C82.973,91.128,77.983,113.403,77.983,126.013C77.983,133.046,81.163,135.561,86.160,136.412L87.924,126.999L92.058,136.817C93.461,136.824,94.936,136.797,96.465,136.769L97.866,133.883L100.991,136.717C113.508,136.736,131.696,135.618,123.624,126.013C112.810,113.146,116.345,90.981,100.803,91.050ZZ" style="fill: rgb(47, 46, 65);"/></g></g><g id="shape-79177ed8-4585-8042-8002-261f7a24a4eb"><g class="fills" id="fills-79177ed8-4585-8042-8002-261f7a24a4eb"><path rx="0" ry="0" d="M918.079,161.050C917.291,158.065,917.173,154.942,917.735,151.906C918.566,146.044,920.437,140.388,922.148,134.719C923.859,129.049,925.429,123.269,925.627,117.351C925.824,111.432,924.541,105.297,921.013,100.542C917.484,95.786,911.469,92.670,905.616,93.564C900.024,94.419,895.140,99.464,895.111,105.061C894.110,106.873,895.403,109.347,897.245,110.421C899.176,111.548,901.505,111.698,903.647,112.339C907.898,113.714,911.384,116.800,913.265,120.853C915.103,124.902,915.591,129.433,914.660,133.780C913.816,137.993,911.875,141.891,910.421,145.933C908.966,149.975,907.993,154.414,909.162,158.548C911.168,164.861,917.518,168.730,924.048,167.619C921.124,166.507,918.907,164.066,918.079,161.050ZZ" style="fill: rgb(47, 46, 65);"/></g></g><g id="shape-79177ed8-4585-8042-8002-261f7a24f404"><g class="fills" id="fills-79177ed8-4585-8042-8002-261f7a24f404"><path rx="0" ry="0" d="M992.004,419.000L0.996,419.000C0.446,419.000,0.000,418.554,0.000,418.004C0.000,417.454,0.446,417.008,0.996,417.008L992.004,417.008C992.554,417.008,993.000,417.454,993.000,418.004C993.000,418.554,992.554,419.000,992.004,419.000ZZ" style="fill: rgb(202, 202, 202);"/></g></g><g id="shape-79177ed8-4585-8042-8002-261f7a250027"><g class="fills" id="fills-79177ed8-4585-8042-8002-261f7a250027"><path rx="0" ry="0" d="M765.879,370.572C763.946,355.029,754.315,339.715,739.495,334.657C745.339,350.655,745.338,368.204,739.491,384.201C737.214,390.363,734.039,396.978,736.181,403.188C737.514,407.051,740.775,410.008,744.420,411.856C748.064,413.704,752.109,414.585,756.104,415.449L756.890,416.099C763.231,401.778,767.811,386.114,765.879,370.572ZZ" style="fill: rgb(185, 115, 36); fill-opacity: 1;"/></g></g><g id="shape-79177ed8-4585-8042-8002-261f7a2588c8"><g class="fills" id="fills-79177ed8-4585-8042-8002-261f7a2588c8"><path rx="0" ry="0" d="M739.348,334.951C747.978,344.623,753.343,356.769,754.679,369.664C755.015,372.435,754.913,375.242,754.376,377.981C753.767,380.632,752.459,383.072,750.588,385.047C748.881,386.923,746.917,388.644,745.695,390.903C744.465,393.261,744.299,396.031,745.240,398.518C746.318,401.612,748.444,404.135,750.609,406.529C753.012,409.187,755.551,411.910,756.573,415.434C756.696,415.861,757.352,415.644,757.228,415.218C755.450,409.086,749.499,405.604,746.661,400.081C745.337,397.504,744.781,394.513,746.023,391.793C747.108,389.414,749.132,387.637,750.877,385.752C752.731,383.852,754.091,381.528,754.839,378.981C755.514,376.278,755.723,373.480,755.459,370.707C754.965,364.453,753.490,358.317,751.090,352.522C748.387,345.893,744.570,339.775,739.804,334.433C739.509,334.102,739.054,334.622,739.348,334.951ZZ" style="fill: rgb(255, 255, 255);"/></g></g><g id="shape-79177ed8-4585-8042-8002-261f7a2588c9"><g class="fills" id="fills-79177ed8-4585-8042-8002-261f7a2588c9"><path rx="0" ry="0" d="M754.493,365.487C758.898,364.417,761.879,360.313,761.536,355.793C761.501,355.350,760.811,355.384,760.846,355.827C761.174,360.038,758.385,363.859,754.276,364.831C753.844,364.934,754.063,365.589,754.493,365.487ZZ" style="fill: rgb(255, 255, 255);"/></g></g><g id="shape-79177ed8-4585-8042-8002-261f7a25e479"><g class="fills" id="fills-79177ed8-4585-8042-8002-261f7a25e479"><path rx="0" ry="0" d="M751.579,384.209C747.727,381.909,744.884,378.241,743.616,373.937C743.490,373.510,742.835,373.727,742.960,374.153C744.288,378.630,747.255,382.441,751.269,384.826C751.652,385.053,751.960,384.435,751.579,384.209ZZ" style="fill: rgb(255, 255, 255);"/></g></g><g id="shape-79177ed8-4585-8042-8002-261f7a263a09"><g class="fills" id="fills-79177ed8-4585-8042-8002-261f7a263a09"><path rx="0" ry="0" d="M747.747,346.546C746.155,347.303,744.290,347.208,742.783,346.294C742.404,346.063,742.096,346.681,742.473,346.911C744.142,347.912,746.198,348.021,747.963,347.202C748.140,347.137,748.236,346.946,748.182,346.766C748.122,346.586,747.927,346.488,747.747,346.546ZZ" style="fill: rgb(255, 255, 255);"/></g></g><g id="shape-79177ed8-4585-8042-8002-261f7a26aca5"><g class="fills" id="fills-79177ed8-4585-8042-8002-261f7a26aca5"><path rx="0" ry="0" d="M694.319,362.418C694.552,362.569,694.785,362.721,695.018,362.878C698.140,364.931,701.089,367.234,703.837,369.765C704.053,369.957,704.269,370.155,704.478,370.353C711.035,376.520,716.389,383.851,720.270,391.973C721.811,395.207,723.104,398.553,724.138,401.982C725.565,406.719,726.736,411.968,729.561,415.842C729.851,416.250,730.166,416.639,730.505,417.008L756.036,417.008C756.094,416.979,756.152,416.955,756.211,416.926L757.230,416.973C757.189,416.792,757.143,416.606,757.102,416.425C757.078,416.320,757.049,416.215,757.026,416.111C757.009,416.041,756.991,415.971,756.979,415.907C756.974,415.883,756.968,415.860,756.962,415.842C756.950,415.778,756.933,415.720,756.921,415.662C756.665,414.619,756.401,413.576,756.129,412.533C756.129,412.527,756.129,412.527,756.123,412.522C754.128,404.555,751.195,396.854,747.386,389.579C747.269,389.363,747.153,389.142,747.024,388.926C745.260,385.706,743.236,382.635,740.972,379.745C739.727,378.166,738.403,376.651,737.005,375.206C733.386,371.480,729.203,368.346,724.610,365.919C715.452,361.084,704.851,359.231,695.065,362.185C694.814,362.261,694.570,362.336,694.319,362.418ZZ" style="fill: rgb(185, 115, 36); fill-opacity: 1;"/></g></g><g id="shape-79177ed8-4585-8042-8002-261f7a2712ca"><g class="fills" id="fills-79177ed8-4585-8042-8002-261f7a2712ca"><path rx="0" ry="0" d="M694.377,362.742C707.090,365.268,718.685,371.735,727.514,381.227C729.451,383.236,731.059,385.539,732.279,388.049C733.389,390.533,733.813,393.269,733.508,395.972C733.274,398.499,732.742,401.056,733.127,403.595C733.564,406.218,735.099,408.530,737.347,409.949C740.071,411.770,743.286,412.504,746.456,413.112C749.975,413.787,753.641,414.433,756.578,416.631C756.934,416.898,757.327,416.330,756.971,416.064C751.861,412.239,745.013,413.041,739.423,410.341C736.815,409.081,734.570,407.027,733.924,404.107C733.359,401.555,733.905,398.917,734.164,396.361C734.500,393.728,734.186,391.053,733.251,388.570C732.162,386.005,730.646,383.645,728.765,381.589C724.606,376.894,719.735,372.882,714.330,369.701C708.181,366.035,701.450,363.449,694.430,362.054C693.995,361.967,693.945,362.656,694.377,362.742ZZ" style="fill: rgb(255, 255, 255);"/></g></g><g id="shape-79177ed8-4585-8042-8002-261f7a276f80"><g class="fills" id="fills-79177ed8-4585-8042-8002-261f7a276f80"><path rx="0" ry="0" d="M724.851,378.003C727.724,374.497,727.634,369.425,724.639,366.022C724.344,365.690,723.814,366.132,724.109,366.465C726.905,369.629,726.979,374.360,724.284,377.610C724.001,377.952,724.570,378.344,724.851,378.003ZZ" style="fill: rgb(255, 255, 255);"/></g></g><g id="shape-79177ed8-4585-8042-8002-261f7a276f81"><g class="fills" id="fills-79177ed8-4585-8042-8002-261f7a276f81"><path rx="0" ry="0" d="M733.795,394.707C729.335,395.190,724.857,393.973,721.253,391.300C720.896,391.035,720.504,391.603,720.860,391.868C724.615,394.642,729.278,395.899,733.919,395.386C734.361,395.337,734.235,394.658,733.795,394.707ZZ" style="fill: rgb(255, 255, 255);"/></g></g><g id="shape-79177ed8-4585-8042-8002-261f7a27b3b6"><g class="fills" id="fills-79177ed8-4585-8042-8002-261f7a27b3b6"><path rx="0" ry="0" d="M708.063,366.943C707.248,368.505,705.702,369.553,703.949,369.731C703.506,369.774,703.632,370.453,704.072,370.410C706.007,370.204,707.714,369.053,708.631,367.336C708.733,367.178,708.695,366.968,708.543,366.856C708.386,366.748,708.172,366.787,708.063,366.943ZZ" style="fill: rgb(255, 255, 255);"/></g></g><g id="shape-79177ed8-4585-8042-8002-261f7a27f97e"><g class="fills" id="fills-79177ed8-4585-8042-8002-261f7a27f97e"><path rx="0" ry="0" d="M191.323,370.572C193.256,355.029,202.887,339.715,217.707,334.657C211.862,350.655,211.864,368.204,217.711,384.201C219.988,390.363,223.162,396.978,221.020,403.188C219.687,407.051,216.427,410.008,212.782,411.856C209.137,413.704,205.092,414.585,201.098,415.449L200.312,416.099C193.971,401.778,189.390,386.114,191.323,370.572ZZ" style="fill: rgb(185, 115, 36); fill-opacity: 1;"/></g></g><g id="shape-79177ed8-4585-8042-8002-261f7a287f97"><g class="fills" id="fills-79177ed8-4585-8042-8002-261f7a287f97"><path rx="0" ry="0" d="M217.854,334.951C209.223,344.623,203.859,356.769,202.523,369.664C202.186,372.435,202.288,375.242,202.825,377.981C203.435,380.632,204.743,383.072,206.614,385.047C208.321,386.923,210.285,388.644,211.507,390.903C212.737,393.261,212.903,396.031,211.962,398.518C210.884,401.612,208.758,404.135,206.593,406.529C204.189,409.187,201.651,411.910,200.629,415.434C200.505,415.861,199.850,415.644,199.974,415.218C201.751,409.086,207.702,405.604,210.540,400.081C211.865,397.504,212.420,394.513,211.179,391.793C210.093,389.414,208.070,387.637,206.324,385.752C204.471,383.852,203.111,381.528,202.363,378.981C201.688,376.278,201.478,373.480,201.742,370.707C202.237,364.453,203.711,358.317,206.112,352.522C208.815,345.893,212.632,339.775,217.398,334.433C217.693,334.102,218.147,334.622,217.854,334.951ZZ" style="fill: rgb(255, 255, 255);"/></g></g><g id="shape-79177ed8-4585-8042-8002-261f7a287f98"><g class="fills" id="fills-79177ed8-4585-8042-8002-261f7a287f98"><path rx="0" ry="0" d="M202.709,365.487C198.304,364.417,195.323,360.313,195.666,355.793C195.701,355.350,196.391,355.384,196.356,355.827C196.028,360.038,198.816,363.859,202.925,364.831C203.357,364.934,203.139,365.589,202.709,365.487ZZ" style="fill: rgb(255, 255, 255);"/></g></g><g id="shape-79177ed8-4585-8042-8002-261f7a28b87c"><g class="fills" id="fills-79177ed8-4585-8042-8002-261f7a28b87c"><path rx="0" ry="0" d="M205.623,384.209C209.475,381.909,212.318,378.241,213.586,373.937C213.712,373.510,214.367,373.727,214.242,374.153C212.914,378.630,209.947,382.441,205.933,384.826C205.550,385.053,205.242,384.435,205.623,384.209ZZ" style="fill: rgb(255, 255, 255);"/></g></g><g id="shape-79177ed8-4585-8042-8002-261f7a28cdec"><g class="fills" id="fills-79177ed8-4585-8042-8002-261f7a28cdec"><path rx="0" ry="0" d="M209.455,346.546C211.047,347.303,212.912,347.208,214.418,346.294C214.798,346.063,215.106,346.681,214.729,346.911C213.060,347.912,211.004,348.021,209.239,347.202C209.062,347.137,208.966,346.946,209.019,346.766C209.080,346.586,209.274,346.488,209.455,346.546ZZ" style="fill: rgb(255, 255, 255);"/></g></g><g id="shape-79177ed8-4585-8042-8002-261f7a296c52"><g class="fills" id="fills-79177ed8-4585-8042-8002-261f7a296c52"><path rx="0" ry="0" d="M262.882,362.418C262.650,362.569,262.417,362.721,262.183,362.878C259.062,364.931,256.113,367.234,253.364,369.765C253.149,369.957,252.933,370.155,252.724,370.353C246.167,376.520,240.813,383.851,236.932,391.973C235.391,395.207,234.098,398.553,233.064,401.982C231.637,406.719,230.466,411.968,227.641,415.842C227.351,416.250,227.035,416.639,226.697,417.008L201.166,417.008C201.108,416.979,201.050,416.955,200.991,416.926L199.972,416.973C200.013,416.792,200.059,416.606,200.100,416.425C200.123,416.320,200.152,416.215,200.176,416.111C200.193,416.041,200.211,415.971,200.222,415.907C200.228,415.883,200.234,415.860,200.240,415.842C200.251,415.778,200.269,415.720,200.281,415.662C200.537,414.619,200.801,413.576,201.073,412.533C201.073,412.527,201.073,412.527,201.079,412.522C203.074,404.555,206.007,396.854,209.816,389.579C209.933,389.363,210.049,389.142,210.177,388.926C211.941,385.706,213.966,382.635,216.230,379.745C217.475,378.166,218.799,376.651,220.197,375.206C223.816,371.480,227.999,368.346,232.592,365.919C241.749,361.084,252.351,359.231,262.137,362.185C262.387,362.261,262.632,362.336,262.882,362.418ZZ" style="fill: rgb(185, 115, 36); fill-opacity: 1;"/></g></g><g id="shape-79177ed8-4585-8042-8002-261f7a29b2a7"><g class="fills" id="fills-79177ed8-4585-8042-8002-261f7a29b2a7"><path rx="0" ry="0" d="M262.825,362.742C250.111,365.268,238.517,371.735,229.688,381.227C227.751,383.236,226.143,385.539,224.922,388.049C223.813,390.533,223.389,393.269,223.694,395.972C223.928,398.499,224.459,401.056,224.075,403.595C223.638,406.218,222.103,408.530,219.855,409.949C217.131,411.770,213.915,412.504,210.746,413.112C207.227,413.787,203.560,414.433,200.623,416.631C200.267,416.898,199.875,416.330,200.230,416.064C205.340,412.239,212.188,413.041,217.779,410.341C220.387,409.081,222.632,407.027,223.278,404.107C223.843,401.555,223.297,398.917,223.038,396.361C222.702,393.728,223.015,391.053,223.951,388.570C225.039,386.005,226.556,383.645,228.436,381.589C232.596,376.894,237.467,372.882,242.872,369.701C249.021,366.035,255.751,363.449,262.772,362.054C263.207,361.967,263.257,362.656,262.825,362.742ZZ" style="fill: rgb(255, 255, 255);"/></g></g><g id="shape-79177ed8-4585-8042-8002-261f7a29d402"><g class="fills" id="fills-79177ed8-4585-8042-8002-261f7a29d402"><path rx="0" ry="0" d="M232.351,378.003C229.478,374.497,229.567,369.425,232.563,366.022C232.857,365.690,233.388,366.132,233.093,366.465C230.296,369.629,230.222,374.360,232.918,377.610C233.201,377.952,232.632,378.344,232.351,378.003ZZ" style="fill: rgb(255, 255, 255);"/></g></g><g id="shape-79177ed8-4585-8042-8002-261f7a2a305e"><g class="fills" id="fills-79177ed8-4585-8042-8002-261f7a2a305e"><path rx="0" ry="0" d="M223.407,394.707C227.867,395.190,232.345,393.973,235.949,391.300C236.305,391.035,236.698,391.603,236.342,391.868C232.587,394.642,227.924,395.899,223.283,395.386C222.841,395.337,222.967,394.658,223.407,394.707ZZ" style="fill: rgb(255, 255, 255);"/></g></g><g id="shape-79177ed8-4585-8042-8002-261f7a2a73a5"><g class="fills" id="fills-79177ed8-4585-8042-8002-261f7a2a73a5"><path rx="0" ry="0" d="M249.139,366.943C249.954,368.505,251.500,369.553,253.253,369.731C253.696,369.774,253.570,370.453,253.130,370.410C251.195,370.204,249.487,369.053,248.571,367.336C248.469,367.178,248.507,366.968,248.658,366.856C248.815,366.748,249.029,366.787,249.139,366.943ZZ" style="fill: rgb(255, 255, 255);"/></g></g></g></svg>