<svg version="1.2" xmlns="http://www.w3.org/2000/svg" viewBox="0 0 300 81" width="300" height="81">
	<title>logo-svg</title>
	<style>
		.s0 { fill: #ffffff } 
	</style>
	<g id="SvgjsG1012">
		<path id="Layer" fill-rule="evenodd" class="s0" d="m44.4 8.7c-1.2 2.7-4.4 3.9-7.2 2.6-2.7-1.2-3.8-4.5-2.6-7.2 1.3-2.7 4.5-3.9 7.2-2.6 2.7 1.3 3.9 4.5 2.6 7.2zm35.6 40.4v12.6c0 0.8-0.7 1.6-1.5 1.6l-18.1 1.6-3.5 5.4h19.5c0.9 0 1.6 0.7 1.6 1.7 0 0.9-0.7 1.6-1.6 1.6h-22.6c-0.6 0-1.1-0.3-1.4-0.9-0.3-0.5-0.3-1.1 0-1.7l5.1-7.8-0.3-0.6-10.5-22.7c-0.9 0.4-1.9 0.5-2.8 0l-10.4-4.8-5 10.8 13.5 28.9c1 2.1 0.1 4.6-2 5.6-2.1 1-4.6 0.1-5.5-2l-13.4-28.6-13.2 28.3c-0.9 2.1-3.4 3-5.5 2-2.1-1-3-3.4-2-5.5l13.5-29 7.5-16.1 0.9-2 5-10.7c1.6-3.3 5.6-4.8 8.9-3.2 3.3 1.5 4.8 5.5 3.2 8.8l-3.1 6.7 10.4 4.8c0.7 0.3 1.2 0.9 1.5 1.5q0 0 0.1 0.1l3.9 8.4 26.4 3.5c0.8 0.1 1.4 0.8 1.4 1.7zm-2 29.2c0 1.4-1.1 2.5-2.5 2.5-1.3 0-2.5-1.1-2.5-2.5 0-1.4 1.2-2.5 2.5-2.5 1.4 0 2.5 1.1 2.5 2.5zm-20.6 0c0 1.4-1.2 2.5-2.5 2.5-1.4 0-2.5-1.1-2.5-2.5 0-1.4 1.1-2.5 2.5-2.5 1.3 0 2.5 1.1 2.5 2.5z"/>
	</g>
	<g id="SvgjsG1013">
		<path id="Layer" fill-rule="evenodd" class="s0" d="m138.5 32.9q0 4.2-1.6 7.4-1.6 3.2-4.3 5.3-2.6 2.1-6.3 3.2-3.9 1.2-7.8 1.2h-9.8v16h-8.7v-24h18.8q4.9 0 8-2.4 2.8-2.5 2.8-6.6 0-4.5-2.9-6.6-3.2-2.3-7.9-2.3h-18.8v-7.9h19.6q4.1 0 7.9 1.2 3.4 1.2 6 3.4 2.4 2.3 3.7 5.2 1.3 3 1.3 6.9zm17.2-1.8q1.9-4.6 5.5-7.9 3.2-3.2 8.3-5.2 5.1-2 10.8-2h11.6v7.9h-11.5q-4.1 0-7.2 1.4-3.4 1.4-5.5 3.6-2.1 2.1-3.5 5.4-1.3 3-1.3 6.8 0 3.8 1.3 6.8 1.2 3.1 3.5 5.4 2.1 2.1 5.5 3.5 3.3 1.2 7.2 1.2h11.5v8h-11.6q-5.9 0-10.7-1.9-5-2.1-8.4-5.3-3.6-3.4-5.5-8-2-4.8-2-9.8 0-5.3 2-9.9zm90.8 21.2q0 3.3-1.3 5.8-1.6 2.8-3.7 4.3-2.2 1.6-5.8 2.6-3.4 1-7.5 1h-20.1v-7.8h20.2q4.4 0 7-1.7 2.5-1.8 2.5-5.2 0-3.1-2.5-5-2.6-1.8-7.6-1.8h-19.6v-7.3h17.7q4.2 0 6.8-1.6 2.5-1.6 2.5-5.2 0-3.1-2.2-4.8-2.5-1.7-6.5-1.7h-18.3v-7.7h19.3q7.6 0 12 3.5 4.4 3.4 4.4 9.3 0 2.2-0.7 4-0.6 1.8-1.5 3.1-0.8 1.1-2.2 2.4-1.5 0.9-2.8 1.7 1.8 0.6 4.1 1.7 2.1 1.4 3.1 2.4 1.3 1.5 2 3.5 0.7 1.9 0.7 4.5zm53.5 0q0 3.3-1.3 5.8-1.5 2.8-3.7 4.3-2.2 1.6-5.8 2.6-3.4 1-7.5 1h-20.1v-7.8h20.2q4.4 0 7-1.7 2.5-1.8 2.5-5.2 0-3.1-2.5-5-2.6-1.8-7.6-1.8h-19.6v-7.3h17.7q4.2 0 6.8-1.6 2.5-1.6 2.5-5.2 0-3.1-2.2-4.8-2.5-1.7-6.5-1.7h-18.3v-7.7h19.4q7.5 0 11.9 3.5 4.4 3.4 4.4 9.3 0 2.2-0.6 4-0.7 1.8-1.6 3.1-0.7 1.1-2.2 2.4-1.5 0.9-2.7 1.7 1.7 0.6 4 1.7 2.1 1.4 3.1 2.4 1.3 1.5 2.1 3.5 0.6 1.9 0.6 4.5z"/>
	</g>
</svg>